<svg width="370" height="525" viewBox="0 0 370 525" fill="none" xmlns="http://www.w3.org/2000/svg">
<rect width="370" height="525" fill="#F5F5F5"/>
<g filter="url(#filter0_di_0_1)">
<path d="M363 170C367 176 364.5 183.5 361.875 188C363 195.5 361.875 204.5 357.234 211.5C358.944 213.664 357.234 227.5 350.458 233C350.458 240.5 344.367 245.086 341.932 249.5C312.111 303.577 257.797 327.492 227 236.5C190 208.5 34 251.455 34 159.5C34 112.102 72.7671 58.5 78.5 58.5C80.2671 53.5 88 45.5 93 45.5C93 45.5 103.5 34.5 109 34.5C110.5 29 120 19.5 129.5 22.5C131 14 148.5 10.5 152 12.5C155 7.0063 180 2.30205 184.5 5C187.5 0.302025 211 -0.500041 217 3.5C226.5 0.499957 234.5 1.99999 239 7.0063C256.5 7.99999 278 16 284 25.1626C296 28 315.5 44 317.058 52C330 52 345.352 78 345.352 93C349.738 94.0143 360 114 357.561 122.5C360.217 124.209 364.533 131.5 363 141C365 148.5 365 161.5 363 170Z" fill="#C68787"/>
</g>
<g filter="url(#filter1_i_0_1)">
<path d="M140 337C181.314 362.083 288.5 313.5 321.5 277.5C321.5 272.037 320.394 229.003 274 208C234.47 190.105 155.642 184.383 140 160C127 116 95 139 95 139C152 95 82.9984 51.6379 78.0001 58C-16 144 56 286 140 337Z" fill="#A66F6F"/>
</g>
<g filter="url(#filter2_i_0_1)">
<path d="M33.4505 111.705C18.9368 150.493 33.4505 192.346 33.4505 192.346C33.4505 192.346 62.219 197.923 86.8725 176.506C108.256 157.93 74.6618 147.705 86.8725 130.425C96.4839 116.823 106 111.705 109 105.615C111.481 100.578 106.536 86.1358 98.5979 77.6514C91.9485 70.5443 84.5 66 76.638 66C68.776 66 39.6528 95.1284 33.4505 111.705Z" fill="#388FDE"/>
</g>
<g filter="url(#filter3_di_0_1)">
<path d="M283 223C333 250 271 561 178.732 511.707C96.5102 467.78 5 327.041 5 264.408C5 201.774 109.366 111 123 154C172.098 216 224.263 191.282 283 223Z" fill="#C12727"/>
</g>
<g filter="url(#filter4_di_0_1)">
<path d="M65 162C58 142 48 173.915 29 173.915C11.0359 173.915 5 226.915 5 226.915V259.915C5 259.915 14.2856 261.238 39 253C42 252 49.5 248.5 52 243.5C53.4318 240.636 59.5474 239.953 61.5 238C63.4526 236.047 61.5 231.5 61.5 228.5C61.5 225.5 70 226.915 70 223.5C70 218 64.9039 219.17 65 213.5C65 210 72 211.5 73 206.5C74 201.5 70 201 70 196.5C70 192 73 191.654 73 190C73 186 68.759 185.395 68 182.5C67.1204 179.145 73 180 73 175.5C73 171 64 174.5 62.5 171C61.7228 169.186 65.7142 164.041 65 162Z" fill="#EE3939"/>
<path d="M4.50321 226.859L4.5 226.887V226.915V259.915V260.349L4.92949 260.41L5 259.915C4.92949 260.41 4.92983 260.411 4.9302 260.411L4.93112 260.411L4.93359 260.411L4.9411 260.412L4.96642 260.415C4.98791 260.418 5.01862 260.422 5.05876 260.426C5.13903 260.434 5.25699 260.445 5.41412 260.455C5.72838 260.476 6.19933 260.496 6.83892 260.493C8.11808 260.489 10.0719 260.395 12.7962 260.043C18.2443 259.339 26.776 257.602 39.1581 253.474C40.6939 252.962 43.3561 251.821 45.9553 250.172C48.5439 248.531 51.1362 246.346 52.4472 243.724C52.7461 243.126 53.3086 242.607 54.0766 242.133C54.842 241.66 55.7671 241.258 56.7388 240.873C57.0446 240.752 57.3571 240.632 57.6696 240.512C58.3328 240.257 58.9959 240.002 59.5948 239.738C60.4737 239.351 61.2956 238.912 61.8536 238.354C62.4459 237.761 62.7201 236.991 62.8201 236.174C62.9195 235.362 62.8515 234.466 62.7275 233.574C62.6417 232.957 62.5252 232.318 62.4119 231.696C62.3621 231.423 62.3129 231.153 62.2672 230.89C62.1151 230.014 62 229.204 62 228.5C62 228.059 62.2843 227.711 63.0256 227.393C63.7228 227.093 64.6532 226.897 65.6663 226.684C65.7283 226.671 65.7906 226.658 65.8532 226.645C66.902 226.424 68.0298 226.176 68.8937 225.748C69.7741 225.313 70.5 224.625 70.5 223.5C70.5 222.04 70.1595 220.987 69.6277 220.147C69.1228 219.35 68.4583 218.769 67.8527 218.24C67.8328 218.222 67.8129 218.205 67.7931 218.188C67.1575 217.632 66.5879 217.121 66.1695 216.424C65.7593 215.74 65.4773 214.845 65.4999 213.508H65.5V213.5C65.5 212.843 65.8058 212.42 66.3788 212.054C66.9051 211.717 67.5943 211.468 68.3946 211.178C68.5259 211.131 68.6601 211.082 68.7971 211.032C70.6643 210.347 72.9314 209.393 73.4903 206.598C73.7541 205.279 73.6926 204.229 73.4339 203.324C73.1774 202.426 72.7349 201.701 72.291 201.035C72.211 200.915 72.1309 200.797 72.0514 200.679C71.2452 199.488 70.5 198.387 70.5 196.5C70.5 194.39 71.193 193.292 71.876 192.512C72.0509 192.313 72.2267 192.133 72.4015 191.954L72.4086 191.946C72.5818 191.769 72.7595 191.587 72.9144 191.402C73.2273 191.029 73.5 190.585 73.5 190C73.5 187.776 72.2983 186.498 71.1143 185.46C70.9354 185.303 70.7605 185.154 70.5902 185.01C70.1836 184.664 69.804 184.341 69.4625 183.985C68.9915 183.493 68.6441 182.985 68.4837 182.373C68.3907 182.019 68.3949 181.752 68.4474 181.542C68.4997 181.332 68.6084 181.145 68.7771 180.963C69.1153 180.598 69.6322 180.306 70.2815 179.94C70.3257 179.916 70.3706 179.89 70.416 179.865C71.0924 179.483 71.8694 179.027 72.4689 178.352C73.0858 177.658 73.5 176.75 73.5 175.5C73.5 174.85 73.3358 174.305 73.0145 173.864C72.6963 173.427 72.2533 173.132 71.7617 172.929C70.8017 172.531 69.542 172.437 68.3381 172.376C68.1688 172.367 68.0002 172.359 67.8327 172.351C66.7679 172.3 65.7479 172.251 64.8819 172.059C63.8816 171.836 63.2388 171.455 62.9596 170.803C62.9086 170.684 62.8823 170.501 62.9108 170.228C62.939 169.959 63.017 169.639 63.138 169.272C63.3797 168.539 63.7668 167.696 64.1736 166.809L64.1808 166.794C64.5835 165.916 65.0043 164.998 65.2765 164.168C65.5399 163.365 65.7104 162.516 65.4719 161.835C64.5878 159.309 63.6375 157.543 62.5867 156.427C61.5167 155.291 60.3343 154.822 59.0534 154.926C57.8102 155.027 56.5412 155.662 55.254 156.573C53.9603 157.489 52.5942 158.725 51.1551 160.096C50.6124 160.613 50.0586 161.15 49.4927 161.699C47.0386 164.078 44.3563 166.679 41.3639 168.836C37.6898 171.483 33.6043 173.415 29 173.415C24.2385 173.415 20.3626 176.926 17.2469 181.933C14.1181 186.96 11.6643 193.638 9.7824 200.279C7.89861 206.927 6.57922 213.571 5.7309 218.55C5.30661 221.041 4.99988 223.116 4.79914 224.57C4.69877 225.297 4.62488 225.868 4.57604 226.258C4.55162 226.453 4.53347 226.603 4.52139 226.704L4.50781 226.819L4.50439 226.849L4.50353 226.856L4.5033 226.858C4.50324 226.859 4.50321 226.859 5 226.915L4.50321 226.859Z" stroke="#EE3939"/>
</g>
<g filter="url(#filter5_i_0_1)">
<path d="M93.4077 77.8948C101.969 84.8518 107.095 101.241 104.5 104.5C101.905 107.759 94.9465 92.645 86.3849 85.6881C77.8233 78.7311 71.9053 73.7593 74.5 70.5C77.0947 67.2407 84.8461 70.9379 93.4077 77.8948Z" fill="#51619B"/>
</g>
<g filter="url(#filter6_i_0_1)">
<path d="M120 376C22 358 5.00001 244 5.00002 262C5.00002 280 9 318.5 54 386.5C85.1907 439.622 133.5 483.5 169 508C202.982 527.04 219 513 219 513C283 463.5 296 345 296 345C296 345 260.882 452.484 228 427C188 396 179 376 120 376Z" fill="#388FDE"/>
</g>
<g filter="url(#filter7_i_0_1)">
<path d="M199.5 82.5C199.5 82.5 142 44 139 57C135 53.5 135.4 30 139 30C147.5 30 199.5 82.5 199.5 82.5Z" fill="#A66F6F"/>
<path d="M139 136C132.103 130.06 117.5 127 117.5 127C117.5 127 131.342 123.557 139 127C152.298 132.98 152 162 152 162C152 162 147.602 143.408 139 136Z" fill="#A66F6F"/>
</g>
<g filter="url(#filter8_i_0_1)">
<path d="M122.5 95L93 45C93 45 109.225 72.5 109 54.5C105 -7 122.5 95 122.5 95Z" fill="#A66F6F"/>
<path d="M152.5 118C144.798 121.924 131.5 111 131.5 111C131.5 111 163.316 96.9681 160.5 108C159.263 112.846 156.956 115.73 152.5 118Z" fill="#A66F6F"/>
<path d="M168.426 26.9221C160.076 19.0948 152.5 12.5 152.5 12.5C152.5 12.5 154 9 162 8C169.032 7.12095 168.672 17.0501 168.426 26.9221C185.366 42.8024 205.492 63.7555 172 45C168.103 42.8179 168.227 34.8886 168.426 26.9221Z" fill="#A66F6F"/>
<path d="M184 54.5C193.5 81.5 233.5 72.5 233.5 72.5C233.5 72.5 216.459 70.6744 217.5 62.5C218.143 57.449 224.5 51.5 224.5 51.5C224.5 51.5 202.5 66 184 54.5Z" fill="#A66F6F"/>
<path d="M156 62.5C156 62.5 167.5 54.5 203.5 111C212.048 124.416 129 82 129 82C129 82 162 84.5 167.5 82C175.383 78.4169 156 62.5 156 62.5Z" fill="#A66F6F"/>
<path d="M129 72.5C140.504 76.2618 160.5 72.5 160.5 72.5C160.5 72.5 147.5 73.5 134.5 62.5C125.884 55.2096 129 25 129 25C129 25 117.314 68.6784 129 72.5Z" fill="#A66F6F"/>
<path d="M269.5 42.5C300 33.5 283 25 283 25L269.5 17L239.5 7C239.5 7 259 17 255 29.5C255 29.5 247 47.5 269.5 42.5Z" fill="#A66F6F"/>
<path d="M201 33.5C216.296 42.9197 231.704 42.9197 247 33.5C257.939 26.7636 231.495 34.2114 214 29.5C193.918 24.0919 184 4.5 184 4.5C184 4.5 190.059 26.7626 201 33.5Z" fill="#A66F6F"/>
<path d="M273.294 115.5C266 90 209 84.5 209 84.5C209 84.5 274.839 72.3508 275.5 95C275.776 104.468 283.304 150.5 273.294 115.5Z" fill="#A66F6F"/>
<path d="M315.5 51.5C315.5 51.5 306.5 71.5 263.5 62.5C244.031 58.4251 302.526 91.4098 313 74.5C317.758 66.8191 315.5 51.5 315.5 51.5Z" fill="#A66F6F"/>
<path d="M292 95C301.556 76.2009 346 95 346 95C346 95 306.5 95 296.5 129C292.721 141.849 285.931 106.94 292 95Z" fill="#A66F6F"/>
<path d="M184 135C172 131 155.196 132.777 146.5 122.5C167.5 122.5 174 122.5 167.5 104C190.157 118.609 190.346 115.848 198 125C221 152.5 160.316 174.816 165 171C192 149 201.493 140.831 184 135Z" fill="#A66F6F"/>
<path d="M192 82C192 82 203.5 111 214 125C235.375 153.5 247 142 247 142C224.5 122.5 208.5 111 192 82Z" fill="#A66F6F"/>
<path d="M247 111C239.127 121.322 246.229 139.669 259 142C261.689 142.491 266 142 266 142C266 142 255.611 99.7101 247 111Z" fill="#A66F6F"/>
<path d="M209 129C219 158.5 259 166 275.5 160.5C292 155 321.5 195.5 321.5 195.5C321.5 195.5 301.334 152.5 278 152.5C269.5 152.5 235 155.341 209 129Z" fill="#A66F6F"/>
<path d="M313 142C339 142 356.5 122.5 356.5 122.5C356.5 122.5 359.5 137.5 350 142C334.502 149.341 295.851 142 313 142Z" fill="#A66F6F"/>
<path d="M356.5 183C338.589 209.131 286.5 142 286.5 142C286.5 142 318.87 170.019 344 171C351.243 171.283 362.5 169.5 362.5 169.5C362.5 169.5 359.762 178.241 356.5 183Z" fill="#A66F6F"/>
<path d="M323.089 189.387C321.732 187.708 321.5 186.5 321.5 186.5C321.5 186.5 322.057 187.649 323.089 189.387C326.183 193.218 335.126 199.5 360.5 199.5C364 199.5 356.5 212.5 356.5 212.5C356.5 212.5 348.306 207.088 341 205.5C332.535 203.66 325.967 194.235 323.089 189.387Z" fill="#A66F6F"/>
<path d="M308.5 205.5C288 181 350.5 232.5 350.5 232.5C350.5 232.5 340 253 341 235C341.639 223.501 316.798 215.417 308.5 205.5Z" fill="#A66F6F"/>
<path d="M198 171C162 178 202.797 154.594 211 154.5C217.925 154.421 218.754 162.133 224.5 166C243.847 179.022 283 178 283 178C283 178 251.461 188.037 231.5 184.5C217.611 182.039 219.867 166.748 198 171Z" fill="#A66F6F"/>
<path d="M308.5 224C308.5 224 286.5 199.5 259 195.5C250.603 194.279 311.508 188.88 303.5 191C286.5 195.5 308.5 224 308.5 224Z" fill="#A66F6F"/>
</g>
<defs>
<filter id="filter0_di_0_1" x="30" y="0.931381" width="339.094" height="304.546" filterUnits="userSpaceOnUse" color-interpolation-filters="sRGB">
<feFlood flood-opacity="0" result="BackgroundImageFix"/>
<feColorMatrix in="SourceAlpha" type="matrix" values="0 0 0 0 0 0 0 0 0 0 0 0 0 0 0 0 0 0 127 0" result="hardAlpha"/>
<feOffset dy="4"/>
<feGaussianBlur stdDeviation="2"/>
<feComposite in2="hardAlpha" operator="out"/>
<feColorMatrix type="matrix" values="0 0 0 0 0 0 0 0 0 0 0 0 0 0 0 0 0 0 0.25 0"/>
<feBlend mode="normal" in2="BackgroundImageFix" result="effect1_dropShadow_0_1"/>
<feBlend mode="normal" in="SourceGraphic" in2="effect1_dropShadow_0_1" result="shape"/>
<feColorMatrix in="SourceAlpha" type="matrix" values="0 0 0 0 0 0 0 0 0 0 0 0 0 0 0 0 0 0 127 0" result="hardAlpha"/>
<feOffset dy="4"/>
<feGaussianBlur stdDeviation="2"/>
<feComposite in2="hardAlpha" operator="arithmetic" k2="-1" k3="1"/>
<feColorMatrix type="matrix" values="0 0 0 0 0 0 0 0 0 0 0 0 0 0 0 0 0 0 0.25 0"/>
<feBlend mode="normal" in2="shape" result="effect2_innerShadow_0_1"/>
</filter>
<filter id="filter1_i_0_1" x="33.6284" y="57.376" width="287.872" height="290.536" filterUnits="userSpaceOnUse" color-interpolation-filters="sRGB">
<feFlood flood-opacity="0" result="BackgroundImageFix"/>
<feBlend mode="normal" in="SourceGraphic" in2="BackgroundImageFix" result="shape"/>
<feColorMatrix in="SourceAlpha" type="matrix" values="0 0 0 0 0 0 0 0 0 0 0 0 0 0 0 0 0 0 127 0" result="hardAlpha"/>
<feOffset dy="4"/>
<feGaussianBlur stdDeviation="2"/>
<feComposite in2="hardAlpha" operator="arithmetic" k2="-1" k3="1"/>
<feColorMatrix type="matrix" values="0 0 0 0 0 0 0 0 0 0 0 0 0 0 0 0 0 0 0.25 0"/>
<feBlend mode="normal" in2="shape" result="effect1_innerShadow_0_1"/>
</filter>
<filter id="filter2_i_0_1" x="27" y="66" width="82.6441" height="131" filterUnits="userSpaceOnUse" color-interpolation-filters="sRGB">
<feFlood flood-opacity="0" result="BackgroundImageFix"/>
<feBlend mode="normal" in="SourceGraphic" in2="BackgroundImageFix" result="shape"/>
<feColorMatrix in="SourceAlpha" type="matrix" values="0 0 0 0 0 0 0 0 0 0 0 0 0 0 0 0 0 0 127 0" result="hardAlpha"/>
<feOffset dy="4"/>
<feGaussianBlur stdDeviation="2"/>
<feComposite in2="hardAlpha" operator="arithmetic" k2="-1" k3="1"/>
<feColorMatrix type="matrix" values="0 0 0 0 0 0 0 0 0 0 0 0 0 0 0 0 0 0 0.25 0"/>
<feBlend mode="normal" in2="shape" result="effect1_innerShadow_0_1"/>
</filter>
<filter id="filter3_di_0_1" x="1" y="142.839" width="303.784" height="382.154" filterUnits="userSpaceOnUse" color-interpolation-filters="sRGB">
<feFlood flood-opacity="0" result="BackgroundImageFix"/>
<feColorMatrix in="SourceAlpha" type="matrix" values="0 0 0 0 0 0 0 0 0 0 0 0 0 0 0 0 0 0 127 0" result="hardAlpha"/>
<feOffset dy="4"/>
<feGaussianBlur stdDeviation="2"/>
<feComposite in2="hardAlpha" operator="out"/>
<feColorMatrix type="matrix" values="0 0 0 0 0 0 0 0 0 0 0 0 0 0 0 0 0 0 0.25 0"/>
<feBlend mode="normal" in2="BackgroundImageFix" result="effect1_dropShadow_0_1"/>
<feBlend mode="normal" in="SourceGraphic" in2="effect1_dropShadow_0_1" result="shape"/>
<feColorMatrix in="SourceAlpha" type="matrix" values="0 0 0 0 0 0 0 0 0 0 0 0 0 0 0 0 0 0 127 0" result="hardAlpha"/>
<feOffset dy="4"/>
<feGaussianBlur stdDeviation="2"/>
<feComposite in2="hardAlpha" operator="arithmetic" k2="-1" k3="1"/>
<feColorMatrix type="matrix" values="0 0 0 0 0 0 0 0 0 0 0 0 0 0 0 0 0 0 0.25 0"/>
<feBlend mode="normal" in2="shape" result="effect2_innerShadow_0_1"/>
</filter>
<filter id="filter4_di_0_1" x="0" y="154.412" width="78.1605" height="114.582" filterUnits="userSpaceOnUse" color-interpolation-filters="sRGB">
<feFlood flood-opacity="0" result="BackgroundImageFix"/>
<feColorMatrix in="SourceAlpha" type="matrix" values="0 0 0 0 0 0 0 0 0 0 0 0 0 0 0 0 0 0 127 0" result="hardAlpha"/>
<feOffset dy="4"/>
<feGaussianBlur stdDeviation="2"/>
<feComposite in2="hardAlpha" operator="out"/>
<feColorMatrix type="matrix" values="0 0 0 0 0 0 0 0 0 0 0 0 0 0 0 0 0 0 0.25 0"/>
<feBlend mode="normal" in2="BackgroundImageFix" result="effect1_dropShadow_0_1"/>
<feBlend mode="normal" in="SourceGraphic" in2="effect1_dropShadow_0_1" result="shape"/>
<feColorMatrix in="SourceAlpha" type="matrix" values="0 0 0 0 0 0 0 0 0 0 0 0 0 0 0 0 0 0 127 0" result="hardAlpha"/>
<feOffset dy="4"/>
<feGaussianBlur stdDeviation="2"/>
<feComposite in2="hardAlpha" operator="arithmetic" k2="-1" k3="1"/>
<feColorMatrix type="matrix" values="0 0 0 0 0 0 0 0 0 0 0 0 0 0 0 0 0 0 0.25 0"/>
<feBlend mode="normal" in2="shape" result="effect2_innerShadow_0_1"/>
</filter>
<filter id="filter5_i_0_1" x="73.8842" y="69.3021" width="31.2917" height="39.6521" filterUnits="userSpaceOnUse" color-interpolation-filters="sRGB">
<feFlood flood-opacity="0" result="BackgroundImageFix"/>
<feBlend mode="normal" in="SourceGraphic" in2="BackgroundImageFix" result="shape"/>
<feColorMatrix in="SourceAlpha" type="matrix" values="0 0 0 0 0 0 0 0 0 0 0 0 0 0 0 0 0 0 127 0" result="hardAlpha"/>
<feOffset dy="4"/>
<feGaussianBlur stdDeviation="2"/>
<feComposite in2="hardAlpha" operator="arithmetic" k2="-1" k3="1"/>
<feColorMatrix type="matrix" values="0 0 0 0 0 0 0 0 0 0 0 0 0 0 0 0 0 0 0.25 0"/>
<feBlend mode="normal" in2="shape" result="effect1_innerShadow_0_1"/>
</filter>
<filter id="filter6_i_0_1" x="5.00002" y="260.08" width="291" height="261.906" filterUnits="userSpaceOnUse" color-interpolation-filters="sRGB">
<feFlood flood-opacity="0" result="BackgroundImageFix"/>
<feBlend mode="normal" in="SourceGraphic" in2="BackgroundImageFix" result="shape"/>
<feColorMatrix in="SourceAlpha" type="matrix" values="0 0 0 0 0 0 0 0 0 0 0 0 0 0 0 0 0 0 127 0" result="hardAlpha"/>
<feOffset dy="4"/>
<feGaussianBlur stdDeviation="2"/>
<feComposite in2="hardAlpha" operator="arithmetic" k2="-1" k3="1"/>
<feColorMatrix type="matrix" values="0 0 0 0 0 0 0 0 0 0 0 0 0 0 0 0 0 0 0.25 0"/>
<feBlend mode="normal" in2="shape" result="effect1_innerShadow_0_1"/>
</filter>
<filter id="filter7_i_0_1" x="117.5" y="30" width="82" height="136" filterUnits="userSpaceOnUse" color-interpolation-filters="sRGB">
<feFlood flood-opacity="0" result="BackgroundImageFix"/>
<feBlend mode="normal" in="SourceGraphic" in2="BackgroundImageFix" result="shape"/>
<feColorMatrix in="SourceAlpha" type="matrix" values="0 0 0 0 0 0 0 0 0 0 0 0 0 0 0 0 0 0 127 0" result="hardAlpha"/>
<feOffset dy="4"/>
<feGaussianBlur stdDeviation="2"/>
<feComposite in2="hardAlpha" operator="arithmetic" k2="-1" k3="1"/>
<feColorMatrix type="matrix" values="0 0 0 0 0 0 0 0 0 0 0 0 0 0 0 0 0 0 0.25 0"/>
<feBlend mode="normal" in2="shape" result="effect1_innerShadow_0_1"/>
</filter>
<filter id="filter8_i_0_1" x="93" y="4.5" width="269.5" height="241.9" filterUnits="userSpaceOnUse" color-interpolation-filters="sRGB">
<feFlood flood-opacity="0" result="BackgroundImageFix"/>
<feBlend mode="normal" in="SourceGraphic" in2="BackgroundImageFix" result="shape"/>
<feColorMatrix in="SourceAlpha" type="matrix" values="0 0 0 0 0 0 0 0 0 0 0 0 0 0 0 0 0 0 127 0" result="hardAlpha"/>
<feOffset dy="4"/>
<feGaussianBlur stdDeviation="2"/>
<feComposite in2="hardAlpha" operator="arithmetic" k2="-1" k3="1"/>
<feColorMatrix type="matrix" values="0 0 0 0 0 0 0 0 0 0 0 0 0 0 0 0 0 0 0.25 0"/>
<feBlend mode="normal" in2="shape" result="effect1_innerShadow_0_1"/>
</filter>
</defs>
</svg>
