<svg width="378" height="536" viewBox="0 0 378 536" fill="none" xmlns="http://www.w3.org/2000/svg">
<rect width="378" height="536" fill="#0E0A2B"/>
<g filter="url(#filter0_f_3_6)">
<path d="M99 55.5C99 55.5 108 98.2417 129 100.5C140.235 101.708 145.204 91.7914 156.5 91.5C179.292 90.912 205 124 205 124" stroke="#E9BBBB" stroke-width="7" stroke-linecap="round"/>
</g>
<path d="M99 55C99 55 108 98.0537 129 100.328C140.235 101.546 145.204 91.5563 156.5 91.2628C179.292 90.6705 205 124 205 124" stroke="#F2E3E3" stroke-width="2" stroke-linecap="round" stroke-linejoin="round"/>
<g filter="url(#filter1_f_3_6)">
<path d="M332.569 277C332.569 277 335.133 230.635 323.569 213C312.65 196.348 277 197 277 197M286 30C286 30 249.44 31.0585 241 48C233.98 62.0908 237.161 74.9728 246 88C259.082 107.282 319.387 96.4083 332 116C339.684 127.934 309 138 309 138M161 131C161 131 171.774 156.317 186 164C194.501 168.591 200.455 171.49 210 170C223.653 167.868 236 146 236 146M181 121C181 121 195.558 149.875 210 146C221.403 142.94 225.569 132.719 227 121C228.757 106.61 220.41 98.0886 210 88C202.208 80.4488 196.263 77.5231 186 74C169.009 68.1673 140 74 140 74M140 30C140 30 165.26 54.5191 186 58C195.243 59.5513 210 58 210 58M361 219C361 219 354.331 196.17 344 186C328.593 170.832 312.35 166.592 291 170C276.857 172.257 269.645 177.662 258 186C248.343 192.915 236 207 236 207M349 102C349 102 333.784 92.0866 323 88C305.286 81.287 293.943 81 275 81C263 81 260.419 60.0374 266 53C273.037 44.1267 291 58 291 58M241 102C241 102 260.826 118.3 275 116C281.732 114.907 315 121 315 121M251 164C251 164 279.953 155.119 279 141C278.095 127.593 251 121 251 121M115 138C161 93 129 170 191 186M361 131C361 131 340.705 157.443 323 156C307.194 154.712 291 131 291 131" stroke="#FFB4B4" stroke-width="6" stroke-linecap="round"/>
</g>
<path d="M332 277C332 277 334.564 230.635 323 213C312.08 196.348 277 197 277 197M286 30C286 30 249.44 31.0585 241 48C233.98 62.0908 237.161 74.9728 246 88C259.082 107.282 319.387 96.4083 332 116C339.684 127.934 309 138 309 138M161 131C161 131 171.774 156.317 186 164C194.501 168.591 200.455 171.49 210 170C223.653 167.868 236 146 236 146M181 121C181 121 195.558 149.875 210 146C221.403 142.94 225.569 132.719 227 121C228.757 106.61 220.41 98.0886 210 88C202.208 80.4488 196.263 77.5231 186 74C169.009 68.1673 140 74 140 74M140 30C140 30 165.26 54.5191 186 58C195.243 59.5513 210 58 210 58M361 219C361 219 354.331 196.17 344 186C328.593 170.832 312.35 166.592 291 170C276.857 172.257 269.645 177.662 258 186C248.343 192.915 236 207 236 207M349 102C349 102 333.784 92.0866 323 88C305.286 81.287 293.943 81 275 81C263 81 260.419 60.0374 266 53C273.037 44.1267 291 58 291 58M241 102C241 102 260.826 118.3 275 116C281.732 114.907 314 120 314 120M251 164C251 164 279.953 155.119 279 141C278.095 127.593 251 121 251 121M115 138C161 93 129 170 191 186M361 131C361 131 340.705 157.443 323 156C307.194 154.712 291 131 291 131" stroke="#F3DEDE" stroke-width="4" stroke-linecap="round"/>
<g filter="url(#filter2_f_3_6)">
<path d="M367.875 177.5C371.875 183.5 369.375 191 366.75 195.5C367.875 203 366.75 212 362.109 219C363.819 221.164 362.109 235 355.333 240.5C355.333 248 349.242 252.586 346.808 257C316.986 311.077 262.673 334.992 231.875 244C194.875 216 38.8752 258.955 38.8752 167C38.8752 119.602 77.6423 66 83.3752 66C85.1423 61 92.8752 53 97.8752 53C97.8752 53 108.375 42 113.875 42C115.375 36.5 124.875 27 134.375 30C135.875 21.5 153.375 18 156.875 20C159.875 14.5063 184.875 9.80207 189.375 12.5C192.375 7.80204 215.875 6.99998 221.875 11C231.375 7.99998 239.375 9.50001 243.875 14.5063C261.875 12.5 283.375 14.5063 288.875 32.6626C300.875 35.5 320.375 51.5 321.933 59.5C334.875 59.5 350.227 85.5 350.227 100.5C354.613 101.514 364.875 121.5 362.436 130C365.092 131.709 369.408 139 367.875 148.5C369.875 156 369.875 169 367.875 177.5Z" stroke="#E9BBBB" stroke-width="8"/>
</g>
<g filter="url(#filter3_d_3_6)">
<path d="M367 178.069C371 184.069 368.5 191.569 365.875 196.069C367 203.569 365.875 212.569 361.234 219.569C362.944 221.733 361.234 235.569 354.458 241.069C354.458 248.569 348.367 253.155 345.932 257.569C316.111 311.646 261.797 335.561 231 244.569C194 216.569 38 259.524 38 167.569C38 120.17 76.7671 66.5686 82.5 66.5686C84.2671 61.5686 92 53.5686 97 53.5686C97 53.5686 107.5 42.5686 113 42.5686C114.5 37.0686 124 27.5686 133.5 30.5686C135 22.0686 152.5 18.5686 156 20.5686C159 15.0749 184 10.3707 188.5 13.0686C191.5 8.37064 215 7.56858 221 11.5686C230.5 8.56858 241.79 9.45633 246.29 14.4626C264.29 14.4626 276 14.4626 291.29 32.619C303.29 35.4563 319.5 52.0686 321.058 60.0686C334 60.0686 349.352 86.0686 349.352 101.069C353.738 102.083 364 122.069 361.561 130.569C364.217 132.278 368.533 139.569 367 149.069C369 156.569 369 169.569 367 178.069Z" stroke="#F2E3E3" stroke-width="3" shape-rendering="crispEdges"/>
</g>
<g filter="url(#filter4_f_3_6)">
<path d="M44.4003 194C44.4003 194 29.9997 154.249 44.4003 117.409C50.5542 101.665 79.4504 74 87.2511 74C95.0518 74 102.442 78.316 109.04 85.0662C116.916 93.1245 121.823 106.841 119.361 111.625C116.384 117.409 97.0363 114.84 97.0363 153.306" stroke="#56BEDF" stroke-width="7"/>
</g>
<path d="M44.4003 194C44.4003 194 29.9997 154.249 44.4003 117.409C50.5542 101.665 79.4504 74 87.2511 74C95.0518 74 102.442 78.316 109.04 85.0662C116.916 93.1245 121.823 106.841 119.361 111.625C116.384 117.409 97.0363 114.84 97.0363 153.306" stroke="#C4E2FF" stroke-width="2"/>
<g filter="url(#filter5_f_3_6)">
<path d="M64.9883 177.5C92.7544 152.415 122.191 140.526 129 162C178.098 224 230.263 199.282 289 231C339 258 277 569 184.732 519.707C102.51 475.78 11 335.041 11 272.408C11 269.978 11.1571 267.505 11.4599 265" stroke="#FF0000" stroke-width="14"/>
</g>
<path d="M65.5399 177.19C93.1752 152.431 122.314 140.824 129.086 162.157C178.221 224.131 230.424 199.424 289.203 231.128C339.24 258.117 277.195 568.989 184.859 519.716C102.577 475.808 11 335.127 11 272.519C11 270.252 11.137 267.948 11.4017 265.614" stroke="#FFB4B4" stroke-width="4"/>
<g filter="url(#filter6_f_3_6)">
<path d="M71 182.588C64 162.588 54 194.504 35 194.504C17.0359 194.504 11 247.504 11 247.504V280.504C11 280.504 20.2856 281.826 45 273.588C48 272.588 55.5 269.088 58 264.088C59.4318 261.225 65.5474 260.541 67.5 258.588C69.4526 256.635 67.5 252.088 67.5 249.088C67.5 246.088 76 247.504 76 244.088C76 238.588 70.9039 239.759 71 234.088C71 230.588 78 232.088 79 227.088C80 222.088 76 221.588 76 217.088C76 212.588 79 212.243 79 210.588C79 206.588 74.759 205.983 74 203.088C73.1204 199.733 79 200.588 79 196.088C79 191.588 70 195.088 68.5 191.588C67.7228 189.775 71.7142 184.629 71 182.588Z" stroke="#EE3939" stroke-width="7"/>
</g>
<path d="M12.8333 279.582C12.5068 279.583 12.2297 279.578 12 279.57V247.562L12.0108 247.47C12.0226 247.372 12.0404 247.225 12.0644 247.033C12.1125 246.648 12.1856 246.083 12.285 245.363C12.484 243.923 12.7883 241.863 13.2096 239.39C14.0526 234.442 15.3614 227.855 17.2256 221.276C19.0936 214.684 21.5018 208.164 24.5204 203.313C27.5652 198.42 31.05 195.504 35 195.504C40.0415 195.504 44.4329 193.384 48.2409 190.641C51.3313 188.414 54.1113 185.717 56.568 183.334C57.1253 182.793 57.666 182.269 58.1898 181.77C59.6242 180.403 60.9231 179.233 62.1209 178.385C63.3317 177.528 64.3328 177.077 65.1744 177.009C65.9409 176.947 66.6932 177.192 67.4946 178.043C68.3343 178.935 69.1994 180.471 70.0561 182.918C70.1148 183.086 70.1091 183.502 69.8512 184.289C69.6107 185.022 69.2293 185.859 68.8175 186.756L68.7886 186.819C68.3985 187.669 67.9818 188.577 67.7135 189.39C67.575 189.81 67.4627 190.243 67.419 190.66C67.376 191.07 67.3912 191.54 67.5809 191.982C68.1474 193.304 69.393 193.853 70.5565 194.111C71.5595 194.334 72.7275 194.389 73.7785 194.438C73.9426 194.446 74.1039 194.454 74.2613 194.462C75.5097 194.526 76.5059 194.62 77.1875 194.903C77.5052 195.034 77.6913 195.183 77.8021 195.335C77.9065 195.478 78 195.701 78 196.088C78 196.963 77.7259 197.518 77.3474 197.944C76.934 198.41 76.3654 198.759 75.6784 199.147C75.6214 199.179 75.5625 199.212 75.5023 199.245C74.9125 199.576 74.1844 199.983 73.6762 200.532C73.3724 200.861 73.1173 201.265 72.9921 201.766C72.8673 202.266 72.8887 202.793 73.0327 203.342C73.281 204.289 73.8083 205.015 74.3794 205.611C74.7778 206.026 75.25 206.428 75.6786 206.792C75.8352 206.925 75.986 207.054 76.1253 207.176C77.2227 208.138 78 209.035 78 210.588C78 210.659 77.9828 210.767 77.765 211.026C77.6529 211.16 77.5162 211.301 77.3351 211.487L77.3194 211.503C77.1497 211.677 76.9497 211.882 76.748 212.112C75.8641 213.12 75 214.559 75 217.088C75 219.453 75.9912 220.908 76.8037 222.102C76.8857 222.222 76.9658 222.34 77.043 222.455C77.4678 223.093 77.8015 223.659 77.9916 224.324C78.1774 224.974 78.2418 225.78 78.0194 226.892C77.6373 228.803 76.1715 229.518 74.2807 230.212C74.1602 230.256 74.036 230.301 73.9095 230.346C73.1255 230.628 72.2511 230.943 71.5706 231.378C70.7029 231.933 70.0032 232.774 70 234.079C69.9745 235.655 70.3119 236.832 70.8833 237.784C71.4384 238.709 72.1823 239.36 72.8035 239.903L72.8057 239.905C73.4562 240.474 73.9746 240.928 74.3603 241.538C74.7255 242.114 75 242.883 75 244.088C75 244.4 74.858 244.68 74.2282 244.992C73.5655 245.32 72.6335 245.536 71.5437 245.765C71.4669 245.782 71.3891 245.798 71.3106 245.814C70.3495 246.016 69.2753 246.241 68.4332 246.603C67.5251 246.993 66.5 247.719 66.5 249.088C66.5 249.931 66.6359 250.851 66.7893 251.735C66.8398 252.025 66.8917 252.31 66.943 252.591C67.0534 253.196 67.1604 253.784 67.2418 254.369C67.3599 255.218 67.4069 255.962 67.3312 256.58C67.2566 257.19 67.0726 257.601 66.7929 257.881C66.4444 258.229 65.8432 258.578 64.99 258.953C64.4238 259.203 63.8186 259.435 63.1759 259.682C62.8554 259.806 62.5255 259.932 62.1865 260.067C61.202 260.457 60.173 260.898 59.2883 261.444C58.4087 261.988 57.5817 262.689 57.1056 263.641C55.9775 265.897 53.6621 267.902 51.152 269.494C48.6628 271.072 46.1122 272.163 44.6838 272.639C32.3764 276.742 23.9399 278.454 18.604 279.143C15.9364 279.488 14.045 279.577 12.8333 279.582Z" stroke="#F3DEDE" stroke-width="2"/>
<g filter="url(#filter7_f_3_6)">
<path d="M101.913 89.1217C108.449 95.4462 110.889 109.907 108.261 112.678C105.633 115.448 101.461 102.047 94.9245 95.7226C88.3883 89.398 83.89 84.884 86.5177 82.1134C89.1454 79.3428 95.3766 82.7971 101.913 89.1217Z" stroke="#56BEDF" stroke-width="4"/>
</g>
<path d="M103.913 88.1217C110.449 94.4462 112.889 108.907 110.261 111.678C107.633 114.448 103.461 101.047 96.9245 94.7226C90.3883 88.398 85.89 83.884 88.5177 81.1134C91.1454 78.3428 97.3766 81.7971 103.913 88.1217Z" stroke="#C5DEE6"/>
<g filter="url(#filter8_f_3_6)">
<path d="M125.967 383.513C27.995 365.576 11 251.977 11 269.914C11 287.85 14.9988 326.215 59.9857 393.976C91.1673 446.911 139.463 490.635 174.952 515.049C208.925 534.022 224.938 520.032 224.938 520.032C288.919 470.706 296.917 367.071 298.916 356.608C300.916 346.145 266.808 459.728 233.935 434.334C193.947 403.443 184.949 383.513 125.967 383.513Z" stroke="#56BEDF" stroke-width="9"/>
</g>
<g filter="url(#filter9_b_3_6)">
<path d="M125.967 383.513C27.995 365.576 11 251.977 11 269.914C11 287.85 14.9988 326.215 59.9857 393.976C91.1673 446.911 139.463 490.635 174.952 515.049C208.925 534.022 224.938 520.032 224.938 520.032C288.919 470.706 296.917 367.071 298.916 356.608C300.916 346.145 266.808 459.728 233.935 434.334C193.947 403.443 184.949 383.513 125.967 383.513Z" stroke="#C5DEE6" stroke-width="3"/>
</g>
<defs>
<filter id="filter0_f_3_6" x="91.4993" y="47.9993" width="121.001" height="83.5009" filterUnits="userSpaceOnUse" color-interpolation-filters="sRGB">
<feFlood flood-opacity="0" result="BackgroundImageFix"/>
<feBlend mode="normal" in="SourceGraphic" in2="BackgroundImageFix" result="shape"/>
<feGaussianBlur stdDeviation="2" result="effect1_foregroundBlur_3_6"/>
</filter>
<filter id="filter1_f_3_6" x="108" y="23" width="260.001" height="261" filterUnits="userSpaceOnUse" color-interpolation-filters="sRGB">
<feFlood flood-opacity="0" result="BackgroundImageFix"/>
<feBlend mode="normal" in="SourceGraphic" in2="BackgroundImageFix" result="shape"/>
<feGaussianBlur stdDeviation="2" result="effect1_foregroundBlur_3_6"/>
</filter>
<filter id="filter2_f_3_6" x="30.8752" y="0.431396" width="347.093" height="312.548" filterUnits="userSpaceOnUse" color-interpolation-filters="sRGB">
<feFlood flood-opacity="0" result="BackgroundImageFix"/>
<feBlend mode="normal" in="SourceGraphic" in2="BackgroundImageFix" result="shape"/>
<feGaussianBlur stdDeviation="2" result="effect1_foregroundBlur_3_6"/>
</filter>
<filter id="filter3_d_3_6" x="32.5" y="7.5" width="342.094" height="307.547" filterUnits="userSpaceOnUse" color-interpolation-filters="sRGB">
<feFlood flood-opacity="0" result="BackgroundImageFix"/>
<feColorMatrix in="SourceAlpha" type="matrix" values="0 0 0 0 0 0 0 0 0 0 0 0 0 0 0 0 0 0 127 0" result="hardAlpha"/>
<feOffset dy="4"/>
<feGaussianBlur stdDeviation="2"/>
<feComposite in2="hardAlpha" operator="out"/>
<feColorMatrix type="matrix" values="0 0 0 0 0 0 0 0 0 0 0 0 0 0 0 0 0 0 0.25 0"/>
<feBlend mode="normal" in2="BackgroundImageFix" result="effect1_dropShadow_3_6"/>
<feBlend mode="normal" in="SourceGraphic" in2="effect1_dropShadow_3_6" result="shape"/>
</filter>
<filter id="filter4_f_3_6" x="30.5" y="66.5" width="97.0001" height="132.69" filterUnits="userSpaceOnUse" color-interpolation-filters="sRGB">
<feFlood flood-opacity="0" result="BackgroundImageFix"/>
<feBlend mode="normal" in="SourceGraphic" in2="BackgroundImageFix" result="shape"/>
<feGaussianBlur stdDeviation="2" result="effect1_foregroundBlur_3_6"/>
</filter>
<filter id="filter5_f_3_6" x="0" y="139.838" width="317.784" height="396.154" filterUnits="userSpaceOnUse" color-interpolation-filters="sRGB">
<feFlood flood-opacity="0" result="BackgroundImageFix"/>
<feBlend mode="normal" in="SourceGraphic" in2="BackgroundImageFix" result="shape"/>
<feGaussianBlur stdDeviation="2" result="effect1_foregroundBlur_3_6"/>
</filter>
<filter id="filter6_f_3_6" x="3.5" y="168.5" width="83.1605" height="119.582" filterUnits="userSpaceOnUse" color-interpolation-filters="sRGB">
<feFlood flood-opacity="0" result="BackgroundImageFix"/>
<feBlend mode="normal" in="SourceGraphic" in2="BackgroundImageFix" result="shape"/>
<feGaussianBlur stdDeviation="2" result="effect1_foregroundBlur_3_6"/>
</filter>
<filter id="filter7_f_3_6" x="79.7658" y="75.1378" width="35.5246" height="43.9221" filterUnits="userSpaceOnUse" color-interpolation-filters="sRGB">
<feFlood flood-opacity="0" result="BackgroundImageFix"/>
<feBlend mode="normal" in="SourceGraphic" in2="BackgroundImageFix" result="shape"/>
<feGaussianBlur stdDeviation="2" result="effect1_foregroundBlur_3_6"/>
</filter>
<filter id="filter8_f_3_6" x="2.5" y="259.5" width="305" height="274.001" filterUnits="userSpaceOnUse" color-interpolation-filters="sRGB">
<feFlood flood-opacity="0" result="BackgroundImageFix"/>
<feBlend mode="normal" in="SourceGraphic" in2="BackgroundImageFix" result="shape"/>
<feGaussianBlur stdDeviation="2" result="effect1_foregroundBlur_3_6"/>
</filter>
<filter id="filter9_b_3_6" x="5.5" y="262.5" width="299" height="268" filterUnits="userSpaceOnUse" color-interpolation-filters="sRGB">
<feFlood flood-opacity="0" result="BackgroundImageFix"/>
<feGaussianBlur in="BackgroundImageFix" stdDeviation="2"/>
<feComposite in2="SourceAlpha" operator="in" result="effect1_backgroundBlur_3_6"/>
<feBlend mode="normal" in="SourceGraphic" in2="effect1_backgroundBlur_3_6" result="shape"/>
</filter>
</defs>
</svg>
