<svg width="845" height="532" viewBox="0 0 845 532" fill="none" xmlns="http://www.w3.org/2000/svg">
<rect width="845" height="532" fill="#182442"/>
<g filter="url(#filter0_di_108_5)">
<path d="M838 173C842 179 839.5 186.5 836.875 191C838 198.5 836.875 207.5 832.234 214.5C833.944 216.664 832.234 230.5 825.458 236C825.458 243.5 819.367 248.086 816.932 252.5C787.111 306.577 732.797 330.492 702 239.5C665 211.5 509 254.455 509 162.5C509 115.102 547.767 61.5 553.5 61.5C555.267 56.5 563 48.5 568 48.5C568 48.5 578.5 37.5 584 37.5C585.5 32 595 22.5 604.5 25.5C606 17 623.5 13.5 627 15.5C630 10.0063 655 5.30207 659.5 8.00002C662.5 3.30204 686 2.49997 692 6.50001C701.5 3.49997 709.5 5.00001 714 10.0063C731.5 11 753 19 759 28.1626C771 31 790.5 47 792.058 55C805 55 820.352 81 820.352 96C824.738 97.0143 835 117 832.561 125.5C835.217 127.209 839.533 134.5 838 144C840 151.5 840 164.5 838 173Z" fill="#C68787"/>
</g>
<g filter="url(#filter1_i_108_5)">
<path d="M615 340C656.314 365.083 763.5 316.5 796.5 280.5C796.5 275.037 795.394 232.003 749 211C709.47 193.105 630.642 187.383 615 163C602 119 570 142 570 142C627 98 557.998 54.6379 553 61C459 147 531 289 615 340Z" fill="#A66F6F"/>
</g>
<g filter="url(#filter2_i_108_5)">
<path d="M508.451 114.705C493.937 153.493 508.451 195.346 508.451 195.346C508.451 195.346 537.219 200.923 561.872 179.506C583.256 160.93 549.662 150.705 561.872 133.425C571.484 119.823 581 114.705 584 108.615C586.481 103.578 581.536 89.1358 573.598 80.6514C566.948 73.5443 559.5 69 551.638 69C543.776 69 514.653 98.1284 508.451 114.705Z" fill="#388FDE"/>
</g>
<g filter="url(#filter3_di_108_5)">
<path d="M758 226C808 253 746 564 653.732 514.707C571.51 470.78 480 330.041 480 267.408C480 204.774 584.366 114 598 157C647.098 219 699.263 194.282 758 226Z" fill="#C12727"/>
</g>
<g filter="url(#filter4_di_108_5)">
<path d="M540 165C533 145 523 176.915 504 176.915C486.036 176.915 480 229.915 480 229.915V262.915C480 262.915 489.286 264.238 514 256C517 255 524.5 251.5 527 246.5C528.432 243.636 534.547 242.953 536.5 241C538.453 239.047 536.5 234.5 536.5 231.5C536.5 228.5 545 229.915 545 226.5C545 221 539.904 222.17 540 216.5C540 213 547 214.5 548 209.5C549 204.5 545 204 545 199.5C545 195 548 194.654 548 193C548 189 543.759 188.395 543 185.5C542.12 182.145 548 183 548 178.5C548 174 539 177.5 537.5 174C536.723 172.186 540.714 167.041 540 165Z" fill="#EE3939"/>
<path d="M479.503 229.859L479.5 229.887V229.915V262.915V263.349L479.929 263.41L480 262.915C479.929 263.41 479.93 263.411 479.93 263.411L479.931 263.411L479.934 263.411L479.941 263.412L479.966 263.415C479.988 263.418 480.019 263.422 480.059 263.426C480.139 263.434 480.257 263.445 480.414 263.455C480.728 263.476 481.199 263.496 481.839 263.493C483.118 263.489 485.072 263.395 487.796 263.043C493.244 262.339 501.776 260.602 514.158 256.474C515.694 255.962 518.356 254.821 520.955 253.172C523.544 251.531 526.136 249.346 527.447 246.724C527.746 246.126 528.309 245.607 529.077 245.133C529.842 244.66 530.767 244.258 531.739 243.873C532.045 243.752 532.357 243.632 532.67 243.512C533.333 243.257 533.996 243.002 534.595 242.738C535.474 242.351 536.296 241.912 536.854 241.354C537.446 240.761 537.72 239.991 537.82 239.174C537.919 238.362 537.851 237.466 537.727 236.574C537.642 235.957 537.525 235.318 537.412 234.696C537.362 234.423 537.313 234.153 537.267 233.89C537.115 233.014 537 232.204 537 231.5C537 231.059 537.284 230.711 538.026 230.393C538.723 230.093 539.653 229.897 540.666 229.684C540.728 229.671 540.791 229.658 540.853 229.645C541.902 229.424 543.03 229.176 543.894 228.748C544.774 228.313 545.5 227.625 545.5 226.5C545.5 225.04 545.16 223.987 544.628 223.147C544.123 222.35 543.458 221.769 542.853 221.24C542.833 221.222 542.813 221.205 542.793 221.188C542.157 220.632 541.588 220.121 541.169 219.424C540.759 218.74 540.477 217.845 540.5 216.508H540.5V216.5C540.5 215.843 540.806 215.42 541.379 215.054C541.905 214.717 542.594 214.468 543.395 214.178C543.526 214.131 543.66 214.082 543.797 214.032C545.664 213.347 547.931 212.393 548.49 209.598C548.754 208.279 548.693 207.229 548.434 206.324C548.177 205.426 547.735 204.701 547.291 204.035C547.211 203.915 547.131 203.797 547.051 203.679C546.245 202.488 545.5 201.387 545.5 199.5C545.5 197.39 546.193 196.292 546.876 195.512C547.051 195.313 547.227 195.133 547.401 194.954L547.409 194.946C547.582 194.769 547.759 194.587 547.914 194.402C548.227 194.029 548.5 193.585 548.5 193C548.5 190.776 547.298 189.498 546.114 188.46C545.935 188.303 545.76 188.154 545.59 188.01C545.184 187.664 544.804 187.341 544.462 186.985C543.992 186.493 543.644 185.985 543.484 185.373C543.391 185.019 543.395 184.752 543.447 184.542C543.5 184.332 543.608 184.145 543.777 183.963C544.115 183.598 544.632 183.306 545.281 182.94C545.326 182.916 545.371 182.89 545.416 182.865C546.092 182.483 546.869 182.027 547.469 181.352C548.086 180.658 548.5 179.75 548.5 178.5C548.5 177.85 548.336 177.305 548.014 176.864C547.696 176.427 547.253 176.132 546.762 175.929C545.802 175.531 544.542 175.437 543.338 175.376C543.169 175.367 543 175.359 542.833 175.351C541.768 175.3 540.748 175.251 539.882 175.059C538.882 174.836 538.239 174.455 537.96 173.803C537.909 173.684 537.882 173.501 537.911 173.228C537.939 172.959 538.017 172.639 538.138 172.272C538.38 171.539 538.767 170.696 539.174 169.809L539.181 169.794C539.583 168.916 540.004 167.998 540.276 167.168C540.54 166.365 540.71 165.516 540.472 164.835C539.588 162.309 538.638 160.543 537.587 159.427C536.517 158.291 535.334 157.822 534.053 157.926C532.81 158.027 531.541 158.662 530.254 159.573C528.96 160.489 527.594 161.725 526.155 163.096C525.612 163.613 525.059 164.15 524.493 164.699C522.039 167.078 519.356 169.679 516.364 171.836C512.69 174.483 508.604 176.415 504 176.415C499.238 176.415 495.363 179.926 492.247 184.933C489.118 189.96 486.664 196.638 484.782 203.279C482.899 209.927 481.579 216.571 480.731 221.55C480.307 224.041 480 226.116 479.799 227.57C479.699 228.297 479.625 228.868 479.576 229.258C479.552 229.453 479.533 229.603 479.521 229.704L479.508 229.819L479.504 229.849L479.504 229.856L479.503 229.858C479.503 229.859 479.503 229.859 480 229.915L479.503 229.859Z" stroke="#EE3939"/>
</g>
<g filter="url(#filter5_i_108_5)">
<path d="M568.408 80.8948C576.969 87.8518 582.095 104.241 579.5 107.5C576.905 110.759 569.946 95.645 561.385 88.6881C552.823 81.7311 546.905 76.7593 549.5 73.5C552.095 70.2407 559.846 73.9379 568.408 80.8948Z" fill="#51619B"/>
</g>
<g filter="url(#filter6_i_108_5)">
<path d="M595 379C497 361 480 247 480 265C480 283 484 321.5 529 389.5C560.191 442.622 608.5 486.5 644 511C677.982 530.04 694 516 694 516C758 466.5 771 348 771 348C771 348 735.882 455.484 703 430C663 399 654 379 595 379Z" fill="#388FDE"/>
</g>
<g filter="url(#filter7_i_108_5)">
<path d="M674.5 85.5C674.5 85.5 617 47 614 60C610 56.5 610.4 33 614 33C622.5 33 674.5 85.5 674.5 85.5Z" fill="#A66F6F"/>
<path d="M614 139C607.103 133.06 592.5 130 592.5 130C592.5 130 606.342 126.557 614 130C627.298 135.98 627 165 627 165C627 165 622.602 146.408 614 139Z" fill="#A66F6F"/>
</g>
<g filter="url(#filter8_i_108_5)">
<path d="M597.5 98L568 48C568 48 584.225 75.5 584 57.5C580 -4 597.5 98 597.5 98Z" fill="#A66F6F"/>
<path d="M627.5 121C619.798 124.924 606.5 114 606.5 114C606.5 114 638.316 99.9681 635.5 111C634.263 115.846 631.956 118.73 627.5 121Z" fill="#A66F6F"/>
<path d="M643.426 29.9221C635.076 22.0948 627.5 15.5 627.5 15.5C627.5 15.5 629 12 637 11C644.032 10.121 643.672 20.0501 643.426 29.9221C660.366 45.8024 680.492 66.7555 647 48C643.103 45.8179 643.227 37.8886 643.426 29.9221Z" fill="#A66F6F"/>
<path d="M659 57.5C668.5 84.5 708.5 75.5 708.5 75.5C708.5 75.5 691.459 73.6744 692.5 65.5C693.143 60.449 699.5 54.5 699.5 54.5C699.5 54.5 677.5 69 659 57.5Z" fill="#A66F6F"/>
<path d="M631 65.5C631 65.5 642.5 57.5 678.5 114C687.048 127.416 604 85 604 85C604 85 637 87.5 642.5 85C650.383 81.4169 631 65.5 631 65.5Z" fill="#A66F6F"/>
<path d="M604 75.5C615.504 79.2618 635.5 75.5 635.5 75.5C635.5 75.5 622.5 76.5 609.5 65.5C600.884 58.2096 604 28 604 28C604 28 592.314 71.6784 604 75.5Z" fill="#A66F6F"/>
<path d="M744.5 45.5C775 36.5 758 28 758 28L744.5 20L714.5 10C714.5 10 734 20 730 32.5C730 32.5 722 50.5 744.5 45.5Z" fill="#A66F6F"/>
<path d="M676 36.5C691.296 45.9197 706.704 45.9197 722 36.5C732.939 29.7636 706.495 37.2114 689 32.5C668.918 27.0919 659 7.5 659 7.5C659 7.5 665.059 29.7626 676 36.5Z" fill="#A66F6F"/>
<path d="M748.294 118.5C741 93 684 87.5 684 87.5C684 87.5 749.839 75.3508 750.5 98C750.776 107.468 758.304 153.5 748.294 118.5Z" fill="#A66F6F"/>
<path d="M790.5 54.5C790.5 54.5 781.5 74.5 738.5 65.5C719.031 61.4251 777.526 94.4098 788 77.5C792.758 69.8191 790.5 54.5 790.5 54.5Z" fill="#A66F6F"/>
<path d="M767 98C776.556 79.2009 821 98 821 98C821 98 781.5 98 771.5 132C767.721 144.849 760.931 109.94 767 98Z" fill="#A66F6F"/>
<path d="M659 138C647 134 630.196 135.777 621.5 125.5C642.5 125.5 649 125.5 642.5 107C665.157 121.609 665.346 118.848 673 128C696 155.5 635.316 177.816 640 174C667 152 676.493 143.831 659 138Z" fill="#A66F6F"/>
<path d="M667 85C667 85 678.5 114 689 128C710.375 156.5 722 145 722 145C699.5 125.5 683.5 114 667 85Z" fill="#A66F6F"/>
<path d="M722 114C714.127 124.322 721.229 142.669 734 145C736.689 145.491 741 145 741 145C741 145 730.611 102.71 722 114Z" fill="#A66F6F"/>
<path d="M684 132C694 161.5 734 169 750.5 163.5C767 158 796.5 198.5 796.5 198.5C796.5 198.5 776.334 155.5 753 155.5C744.5 155.5 710 158.341 684 132Z" fill="#A66F6F"/>
<path d="M788 145C814 145 831.5 125.5 831.5 125.5C831.5 125.5 834.5 140.5 825 145C809.502 152.341 770.851 145 788 145Z" fill="#A66F6F"/>
<path d="M831.5 186C813.589 212.131 761.5 145 761.5 145C761.5 145 793.87 173.019 819 174C826.243 174.283 837.5 172.5 837.5 172.5C837.5 172.5 834.762 181.241 831.5 186Z" fill="#A66F6F"/>
<path d="M798.089 192.387C796.732 190.708 796.5 189.5 796.5 189.5C796.5 189.5 797.057 190.649 798.089 192.387C801.183 196.218 810.126 202.5 835.5 202.5C839 202.5 831.5 215.5 831.5 215.5C831.5 215.5 823.306 210.088 816 208.5C807.535 206.66 800.967 197.235 798.089 192.387Z" fill="#A66F6F"/>
<path d="M783.5 208.5C763 184 825.5 235.5 825.5 235.5C825.5 235.5 815 256 816 238C816.639 226.501 791.798 218.417 783.5 208.5Z" fill="#A66F6F"/>
<path d="M673 174C637 181 677.797 157.594 686 157.5C692.925 157.421 693.754 165.133 699.5 169C718.847 182.022 758 181 758 181C758 181 726.461 191.037 706.5 187.5C692.611 185.039 694.867 169.748 673 174Z" fill="#A66F6F"/>
<path d="M783.5 227C783.5 227 761.5 202.5 734 198.5C725.603 197.279 786.508 191.88 778.5 194C761.5 198.5 783.5 227 783.5 227Z" fill="#A66F6F"/>
</g>
<g filter="url(#filter9_di_108_5)">
<path d="M364 177C368 183 365.5 190.5 362.875 195C364 202.5 362.875 211.5 358.234 218.5C359.944 220.664 358.234 234.5 351.458 240C351.458 247.5 345.367 252.086 342.932 256.5C313.111 310.577 258.797 334.492 228 243.5C191 215.5 35 258.455 35 166.5C35 119.102 73.7671 65.5 79.5 65.5C81.2671 60.5 89 52.5 94 52.5C94 52.5 104.5 41.5 110 41.5C111.5 36 121 26.5 130.5 29.5C132 21 149.5 17.5 153 19.5C156 14.0063 181 9.30205 185.5 12C188.5 7.30202 212 6.49996 218 10.5C227.5 7.49996 235.5 8.99999 240 14.0063C257.5 15 279 23 285 32.1626C297 35 316.5 51 318.058 59C331 59 346.352 85 346.352 100C350.738 101.014 361 121 358.561 129.5C361.217 131.209 365.533 138.5 364 148C366 155.5 366 168.5 364 177Z" fill="#C68787"/>
</g>
<g filter="url(#filter10_f_108_5)">
<path d="M240 14.0063C235.5 8.99999 227.5 7.49996 218 10.5C212 6.49996 188.5 7.30202 185.5 12C181 9.30205 156 14.0063 153 19.5C149.5 17.5 132 21 130.5 29.5C121 26.5 111.5 36 110 41.5C104.5 41.5 94 52.5 94 52.5C89 52.5 81.2671 60.5 79.5 65.5C73.7671 65.5 35 119.102 35 166.5C35 258.455 191 215.5 228 243.5C258.797 334.492 313.111 310.577 342.932 256.5C345.367 252.086 351.458 247.5 351.458 240C358.234 234.5 359.944 220.664 358.234 218.5C362.875 211.5 364 202.5 362.875 195C365.5 190.5 368 183 364 177C366 168.5 366 155.5 364 148C365.533 138.5 361.217 131.209 358.561 129.5C361 121 350.738 101.014 346.352 100M240 14.0063C257.5 15 279 23 285 32.1626M240 14.0063L285 32.1626M285 32.1626C297 35 316.5 51 318.058 59M318.058 59C331 59 346.352 85 346.352 100M318.058 59L346.352 100" stroke="#A66F6F" stroke-width="6"/>
</g>
<path d="M362.54 176.656L362.391 177.29L362.752 177.832C364.494 180.446 364.853 183.422 364.437 186.351C364.018 189.296 362.824 192.111 361.579 194.244L361.313 194.7L361.392 195.222C362.476 202.451 361.372 211.053 356.984 217.671L356.383 218.577L357.057 219.43C357.053 219.424 357.053 219.426 357.058 219.435C357.076 219.475 357.161 219.654 357.234 220.077C357.317 220.553 357.362 221.193 357.35 221.976C357.326 223.538 357.078 225.532 356.57 227.649C355.539 231.943 353.522 236.393 350.513 238.835L349.958 239.286V240C349.958 243.313 348.622 246.033 346.875 248.553C346.158 249.588 345.395 250.557 344.632 251.526C344.458 251.747 344.284 251.968 344.11 252.19C343.198 253.357 342.292 254.555 341.619 255.776C334.229 269.177 325.347 280.659 315.744 288.943C306.135 297.232 295.886 302.25 285.736 302.904C265.666 304.199 244.77 288.368 229.421 243.019L229.273 242.582L228.905 242.304C224.026 238.611 217.294 236.161 209.4 234.458C201.488 232.75 192.275 231.766 182.336 231.091C174.374 230.55 165.977 230.206 157.378 229.855C144.375 229.323 130.908 228.772 117.771 227.49C96.0003 225.367 75.6348 221.263 60.7384 212.109C45.9711 203.036 36.5 188.958 36.5 166.5C36.5 143.179 46.9232 116.947 58.1654 96.4469C63.7743 86.219 69.5546 77.477 74.2729 71.3084C76.635 68.2203 78.7107 65.8037 80.3493 64.1742C81.1716 63.3565 81.8527 62.7682 82.3812 62.3952C82.6452 62.2088 82.8423 62.0968 82.9766 62.036C83.0178 62.0174 83.0471 62.0063 83.0653 62H84.0608L84.4143 60.9998C85.9777 56.5763 89.6598 54 94 54H94.6418L95.0849 53.5359L95.085 53.5358L95.085 53.5357L95.0859 53.5348L95.0905 53.53L95.111 53.5087C95.1295 53.4894 95.1578 53.4602 95.1953 53.4215C95.2704 53.3442 95.3824 53.2295 95.5278 53.0828C95.8185 52.7892 96.2417 52.3679 96.7673 51.8614C97.8202 50.847 99.2762 49.4985 100.896 48.1541C102.521 46.8047 104.279 45.4861 105.939 44.5125C107.651 43.508 109.046 43 110 43H111.146L111.447 41.8947C112.08 39.5731 114.561 36.0851 118.124 33.5317C121.655 31.0013 125.912 29.6242 130.048 30.9304L131.68 31.4456L131.977 29.7607C132.265 28.1282 133.344 26.6109 135.081 25.2515C136.813 23.8959 139.083 22.7927 141.48 21.9837C143.87 21.177 146.313 20.6874 148.343 20.5183C149.359 20.4336 150.242 20.4317 150.945 20.4998C151.682 20.5713 152.09 20.7078 152.256 20.8024L153.584 21.5611L154.316 20.2189C154.521 19.8449 155.005 19.3343 155.902 18.7401C156.774 18.1624 157.919 17.581 159.284 17.0175C162.01 15.8913 165.463 14.8959 168.999 14.1454C172.532 13.3956 176.091 12.9021 179.018 12.7593C180.484 12.6879 181.758 12.706 182.776 12.814C183.839 12.9267 184.454 13.1218 184.729 13.2865L185.979 14.0363L186.764 12.8073C186.924 12.5574 187.334 12.1825 188.175 11.7683C188.987 11.3682 190.063 10.9986 191.361 10.6772C193.952 10.0352 197.253 9.62815 200.687 9.48698C204.116 9.346 207.621 9.47259 210.614 9.87296C213.673 10.2822 215.971 10.9504 217.168 11.7481L217.766 12.1469L218.452 11.9304C227.637 9.02961 234.926 10.6047 238.884 15.009L239.298 15.4688L239.915 15.5039C248.493 15.991 258.087 18.2009 266.263 21.417C274.519 24.6642 281.014 28.8137 283.745 32.9844L284.073 33.4847L284.655 33.6224C290.328 34.9638 297.993 39.5065 304.497 44.808C307.728 47.4412 310.613 50.2141 312.773 52.7936C314.974 55.4226 316.272 57.6779 316.586 59.2868L316.822 60.5H318.058C320.802 60.5 323.858 61.891 326.988 64.4569C330.096 67.0049 333.131 70.5946 335.801 74.6937C341.17 82.9359 344.852 92.8994 344.852 100V101.193L346.014 101.461C346.162 101.496 346.562 101.689 347.203 102.298C347.807 102.871 348.496 103.687 349.234 104.716C350.706 106.769 352.277 109.539 353.65 112.563C355.023 115.586 356.175 118.813 356.835 121.774C357.504 124.777 357.625 127.323 357.119 129.086L356.812 130.158L357.749 130.761C358.7 131.373 360.287 133.29 361.448 136.359C362.583 139.36 363.24 143.293 362.519 147.761L362.468 148.077L362.551 148.386C364.479 155.619 364.49 168.366 362.54 176.656Z" stroke="#F3DEDE" stroke-width="3"/>
<g filter="url(#filter11_i_108_5)">
<path d="M141 344C182.314 369.083 289.5 320.5 322.5 284.5C322.5 279.037 321.394 236.003 275 215C235.47 197.105 156.642 191.383 141 167C128 123 96 146 96 146C153 102 83.9984 58.6379 79 65C-15 151 57 293 141 344Z" fill="#A66F6F"/>
</g>
<path d="M141 344C182.314 369.083 290 318.5 323 282.5C323 277.037 321.394 236.002 275 215C235.47 197.105 156.642 191.383 141 167C128 123 94.3831 147.5 94.3831 147.5C151.383 103.5 85.3815 58.1379 80.3832 64.5C-13.6169 150.5 57 293 141 344Z" stroke="#F2E3E3" stroke-width="2"/>
<g filter="url(#filter12_i_108_5)">
<path d="M34.4505 118.705C19.9368 157.493 34.4505 199.346 34.4505 199.346C34.4505 199.346 63.219 204.923 87.8725 183.506C109.256 164.93 75.6618 154.705 87.8725 137.425C97.4839 123.823 107 118.705 110 112.615C112.481 107.578 107.536 93.1358 99.5979 84.6514C92.9485 77.5443 85.5 73 77.638 73C69.776 73 40.6528 102.128 34.4505 118.705Z" fill="#388FDE"/>
</g>
<path d="M34.4505 118.705C19.9368 157.493 34.4505 199.346 34.4505 199.346C34.4505 199.346 63.219 204.923 87.8725 183.506C109.256 164.93 75.6618 154.705 87.8725 137.425C97.4839 123.823 107 118.705 110 112.615C112.481 107.578 107.536 93.1358 99.5979 84.6514C92.9485 77.5443 85.5 73 77.638 73C69.776 73 40.6528 102.128 34.4505 118.705Z" stroke="#C4E2FF" stroke-width="3"/>
<g filter="url(#filter13_di_108_5)">
<path d="M284 230C334 257 272 568 179.732 518.707C97.5102 474.78 6 334.041 6 271.408C6 208.774 110.366 118 124 161C173.098 223 225.263 198.282 284 230Z" fill="#C12727"/>
</g>
<path d="M123.047 161.302L123.102 161.477L123.216 161.621C147.956 192.862 173.516 202.269 200.181 207.835C206.186 209.088 212.232 210.146 218.329 211.213C239.312 214.885 260.9 218.662 283.525 230.88C289.398 234.051 293.802 241.514 296.693 252.435C299.571 263.308 300.888 277.381 300.777 293.426C300.555 325.507 294.625 365.285 284.253 402.696C273.876 440.125 259.083 475.073 241.198 497.566C232.257 508.811 222.601 516.871 212.409 520.623C202.259 524.359 191.495 523.857 180.203 517.825C139.298 495.971 95.9747 449.955 62.8584 401.508C46.3098 377.298 32.3346 352.516 22.5003 329.896C12.656 307.252 7 286.862 7 271.408C7 256.005 13.426 238.771 23.3775 222.201C33.3195 205.647 46.7261 189.847 60.5581 177.333C74.4089 164.802 88.6005 155.642 100.093 152.262C105.839 150.572 110.795 150.36 114.674 151.769C118.497 153.158 121.422 156.176 123.047 161.302Z" stroke="#FFB4B4" stroke-width="2"/>
<g filter="url(#filter14_di_108_5)">
<path d="M66 169C59 149 49 180.915 30 180.915C12.0359 180.915 6 233.915 6 233.915V266.915C6 266.915 15.2856 268.238 40 260C43 259 50.5 255.5 53 250.5C54.4318 247.636 60.5474 246.953 62.5 245C64.4526 243.047 62.5 238.5 62.5 235.5C62.5 232.5 71 233.915 71 230.5C71 225 65.9039 226.17 66 220.5C66 217 73 218.5 74 213.5C75 208.5 71 208 71 203.5C71 199 74 198.654 74 197C74 193 69.759 192.395 69 189.5C68.1204 186.145 74 187 74 182.5C74 178 65 181.5 63.5 178C62.7228 176.186 66.7142 171.041 66 169Z" fill="#EE3939"/>
<path d="M5.00642 233.802L5 233.859V233.915V266.915V267.783L5.85899 267.906L6 266.915C5.85899 267.906 5.85962 267.906 5.86029 267.906L5.86181 267.906L5.86548 267.906L5.87538 267.908L5.90546 267.912C5.9301 267.915 5.96395 267.919 6.0072 267.923C6.09371 267.932 6.2178 267.943 6.38097 267.954C6.70731 267.976 7.18996 267.996 7.8408 267.993C9.14243 267.989 11.1171 267.893 13.8603 267.539C19.3458 266.83 27.9092 265.084 40.3162 260.949C41.8878 260.425 44.5872 259.266 47.223 257.595C49.8379 255.936 52.5225 253.691 53.8944 250.947C54.1342 250.468 54.6085 250.009 55.3393 249.558C56.065 249.11 56.9554 248.721 57.9229 248.338C58.218 248.221 58.5246 248.103 58.8341 247.984C59.5035 247.727 60.1865 247.464 60.7964 247.196C61.6838 246.805 62.5793 246.335 63.2071 245.707C63.9037 245.011 64.2079 244.121 64.3164 243.235C64.4237 242.358 64.3487 241.411 64.2227 240.505C64.1355 239.877 64.0157 239.22 63.9016 238.594C63.8522 238.323 63.804 238.058 63.7598 237.804C63.6081 236.931 63.5 236.157 63.5 235.5C63.5 235.369 63.5374 235.147 64.223 234.852C64.8726 234.573 65.7569 234.387 66.7952 234.168C66.8485 234.157 66.9022 234.146 66.9563 234.134C67.9915 233.916 69.1845 233.657 70.1155 233.196C71.0795 232.719 72 231.895 72 230.5C72 228.955 71.6375 227.808 71.0502 226.88C70.5056 226.019 69.7922 225.396 69.1948 224.875C69.1704 224.853 69.1463 224.832 69.1223 224.811C68.4819 224.251 67.9709 223.788 67.5982 223.167C67.2421 222.573 66.9786 221.772 66.9999 220.517L67 220.508V220.5C67 220.06 67.174 219.778 67.6482 219.475C68.1237 219.171 68.7522 218.943 69.5585 218.651C69.6906 218.603 69.8275 218.553 69.9693 218.501C71.8285 217.82 74.3627 216.785 74.9806 213.696C75.2582 212.308 75.1976 211.177 74.9146 210.186C74.636 209.211 74.1572 208.433 73.707 207.758C73.6267 207.637 73.5473 207.52 73.4692 207.404C72.6638 206.212 72 205.229 72 203.5C72 201.529 72.6359 200.545 73.252 199.842C73.4181 199.653 73.586 199.481 73.7635 199.299L73.7665 199.296L73.7712 199.291C73.9405 199.117 74.1299 198.923 74.2975 198.723C74.6422 198.312 75 197.756 75 197C75 194.553 73.6568 193.148 72.444 192.084C72.2505 191.914 72.0675 191.759 71.8935 191.611C71.4968 191.274 71.1466 190.976 70.8235 190.639C70.3859 190.182 70.0985 189.747 69.9673 189.246C69.8913 188.957 69.9041 188.776 69.9325 188.663C69.9605 188.551 70.0204 188.436 70.1441 188.303C70.4271 187.997 70.8785 187.742 71.5729 187.35L71.6619 187.3C72.3348 186.92 73.1812 186.429 73.8427 185.684C74.5391 184.9 75 183.875 75 182.5C75 181.763 74.8122 181.11 74.4186 180.569C74.0313 180.038 73.5026 179.695 72.9532 179.467C71.9003 179.031 70.5528 178.937 69.3637 178.876C69.1908 178.867 69.0201 178.859 68.8518 178.851C67.7821 178.8 66.811 178.753 65.9904 178.571C65.0445 178.36 64.6026 178.034 64.4191 177.606C64.4145 177.595 64.3844 177.507 64.4081 177.281C64.4312 177.061 64.4976 176.778 64.6129 176.429C64.8454 175.724 65.222 174.903 65.6352 174.002L65.6362 174C66.0356 173.13 66.4691 172.185 66.7516 171.324C67.0169 170.515 67.2423 169.522 66.9439 168.67C66.0506 166.117 65.0719 164.275 63.9507 163.084C62.7912 161.853 61.4654 161.31 60.0131 161.428C58.6359 161.539 57.2777 162.235 55.965 163.165C54.6394 164.104 53.2508 165.361 51.8102 166.734C51.2611 167.257 50.7029 167.798 50.1341 168.35C47.6812 170.728 45.0313 173.297 42.0716 175.43C38.4421 178.045 34.4585 179.915 30 179.915C24.968 179.915 20.9617 183.624 17.8224 188.668C14.6569 193.755 12.1878 200.485 10.3013 207.143C8.411 213.814 7.08809 220.477 6.238 225.466C5.81271 227.963 5.50519 230.043 5.30384 231.501C5.20316 232.23 5.129 232.804 5.07992 233.196C5.05537 233.392 5.0371 233.543 5.02491 233.645L5.01117 233.761L5.00768 233.791L5.00677 233.799L5.00653 233.801C5.00646 233.802 5.00642 233.802 6 233.915L5.00642 233.802Z" stroke="#FBBCBC" stroke-width="2"/>
</g>
<g filter="url(#filter15_i_108_5)">
<path d="M94.4077 84.8948C102.969 91.8518 108.095 108.241 105.5 111.5C102.905 114.759 95.9465 99.645 87.3849 92.6881C78.8233 85.7311 72.9053 80.7593 75.5 77.5C78.0947 74.2407 85.8461 77.9379 94.4077 84.8948Z" fill="#51619B"/>
</g>
<g filter="url(#filter16_i_108_5)">
<path d="M121 383C23 365 5.99999 251 6 269C6.00001 287 9.99998 325.5 55 393.5C86.1906 446.622 134.5 490.5 170 515C203.982 534.04 220 520 220 520C284 470.5 297 352 297 352C297 352 261.882 459.484 229 434C189 403 180 383 121 383Z" fill="#388FDE"/>
</g>
<g filter="url(#filter17_f_108_5)">
<path d="M209.5 95.5C209.5 95.5 152 57 149 70C145 66.5 145.4 43 149 43C157.5 43 209.5 95.5 209.5 95.5Z" stroke="#A66F6F" stroke-width="9"/>
<path d="M149 149C142.103 143.06 127.5 140 127.5 140C127.5 140 141.342 136.557 149 140C162.298 145.98 162 175 162 175C162 175 157.602 156.408 149 149Z" stroke="#A66F6F" stroke-width="9"/>
</g>
<path d="M209 95.5C209 95.5 151.5 57 148.5 70C144.5 66.5 144.9 43 148.5 43C157 43 209 95.5 209 95.5Z" stroke="#F3DEDE"/>
<path d="M148.5 149C141.603 143.06 127 140 127 140C127 140 140.842 136.557 148.5 140C161.798 145.98 161.5 175 161.5 175C161.5 175 157.102 156.408 148.5 149Z" stroke="#F3DEDE"/>
<g filter="url(#filter18_f_108_5)">
<path d="M105 58.9849L132.475 107.114C132.475 107.114 116.176 8.9302 119.902 68.1295C120.111 85.4562 105 58.9849 105 58.9849ZM140.857 122.516C140.857 122.516 153.242 133.032 160.416 129.254C164.566 127.069 166.714 124.293 167.866 119.628C170.489 109.009 140.857 122.516 140.857 122.516ZM160.416 27.7007C160.416 27.7007 225.145 85.9375 178.577 58.9849C170.451 54.2817 181.099 21.8401 169.263 23.3691C161.813 24.3317 160.416 27.7007 160.416 27.7007ZM235.855 85.4562C235.855 85.4562 198.601 94.1195 189.753 68.1295C206.983 79.1993 227.473 65.2418 227.473 65.2418C227.473 65.2418 221.553 70.9682 220.954 75.8303C219.984 83.6989 235.855 85.4562 235.855 85.4562ZM207.915 122.516C174.386 68.1295 163.675 75.8303 163.675 75.8303C163.675 75.8303 181.727 91.1518 174.386 94.6008C169.263 97.0073 138.529 94.6008 138.529 94.6008C138.529 94.6008 215.876 135.43 207.915 122.516ZM138.529 39.7331C138.529 39.7331 127.645 81.7776 138.529 85.4562C149.243 89.0773 167.866 85.4562 167.866 85.4562C167.866 85.4562 155.759 86.4188 143.651 75.8303C135.627 68.8126 138.529 39.7331 138.529 39.7331ZM241.443 22.4065C241.443 22.4065 259.605 32.0324 255.879 44.0648C255.879 44.0648 248.429 61.3914 269.384 56.5785C297.79 47.9151 281.957 39.7331 281.957 39.7331L269.384 32.0324L241.443 22.4065ZM189.753 20C189.753 20 195.397 41.4298 205.586 47.9151C219.833 56.9824 234.182 56.9824 248.429 47.9151C258.617 41.4308 233.987 48.5999 217.694 44.0648C198.991 38.859 189.753 20 189.753 20ZM213.037 97.0073C213.037 97.0073 266.124 102.302 272.917 126.848C282.241 160.538 275.229 116.228 274.972 107.114C274.357 85.3126 213.037 97.0073 213.037 97.0073ZM263.796 75.8303C303.844 84.4936 305.707 58.9849 305.707 58.9849C305.707 58.9849 314.329 79.9878 309.898 87.3814C300.143 103.659 245.663 71.9078 263.796 75.8303ZM340.633 107.114C340.633 107.114 299.239 89.0186 290.34 107.114C284.687 118.608 291.011 152.211 294.531 139.843C303.844 107.114 340.633 107.114 340.633 107.114ZM154.827 133.586C162.927 143.479 178.577 141.768 189.753 145.618C206.045 151.231 197.204 159.094 172.058 180.271C167.695 183.945 224.213 162.463 202.792 135.992C195.663 127.183 195.487 129.84 174.386 115.778C180.44 133.586 174.386 133.586 154.827 133.586ZM217.694 135.992C207.915 122.516 197.204 94.6008 197.204 94.6008C212.571 122.516 227.473 133.586 248.429 152.356C248.429 152.356 237.602 163.426 217.694 135.992ZM259.605 152.356C247.711 150.113 241.096 132.452 248.429 122.516C256.449 111.648 266.124 152.356 266.124 152.356C266.124 152.356 262.109 152.829 259.605 152.356ZM274.972 170.164C259.605 175.458 222.351 168.239 213.037 139.843C237.252 165.199 269.384 162.463 277.301 162.463C299.033 162.463 317.814 203.855 317.814 203.855C317.814 203.855 290.34 164.87 274.972 170.164ZM350.412 133.586C350.412 133.586 334.113 152.356 309.898 152.356C293.926 152.356 329.924 159.423 344.358 152.356C353.206 148.025 350.412 133.586 350.412 133.586ZM356 178.828C356 178.828 353.45 187.242 350.412 191.822C333.73 216.976 285.217 152.356 285.217 152.356C285.217 152.356 315.365 179.327 338.77 180.271C345.516 180.544 356 178.828 356 178.828ZM350.412 220.219C350.412 220.219 357.397 207.705 354.137 207.705C320.143 207.705 317.814 195.192 317.814 195.192C317.814 195.192 325.265 211.074 335.976 213.481C342.78 215.01 350.412 220.219 350.412 220.219ZM344.824 239.471C344.824 239.471 286.614 189.897 305.707 213.481C313.435 223.026 336.571 230.809 335.976 241.877C335.045 259.204 344.824 239.471 344.824 239.471ZM214.9 164.389C207.26 164.479 169.263 187.01 202.792 180.271C223.158 176.179 221.057 190.898 233.993 193.266C252.583 196.671 281.957 187.01 281.957 187.01C281.957 187.01 245.492 187.993 227.473 175.458C222.122 171.736 221.35 164.312 214.9 164.389ZM259.605 203.855C285.217 207.705 305.707 231.289 305.707 231.289C305.707 231.289 285.217 203.855 301.05 199.523C308.509 197.483 251.784 202.679 259.605 203.855Z" stroke="#A66F6F" stroke-width="9"/>
</g>
<path d="M105 58.9849L132.475 107.114C132.475 107.114 116.176 8.9302 119.902 68.1295C120.111 85.4562 105 58.9849 105 58.9849ZM140.857 122.516C140.857 122.516 153.242 133.032 160.416 129.254C164.566 127.069 166.714 124.293 167.866 119.628C170.489 109.009 140.857 122.516 140.857 122.516ZM160.416 27.7007C160.416 27.7007 225.145 85.9375 178.577 58.9849C170.451 54.2817 181.099 21.8401 169.263 23.3691C161.813 24.3317 160.416 27.7007 160.416 27.7007ZM235.855 85.4562C235.855 85.4562 198.601 94.1195 189.753 68.1295C206.983 79.1993 227.473 65.2418 227.473 65.2418C227.473 65.2418 221.553 70.9682 220.954 75.8303C219.984 83.6989 235.855 85.4562 235.855 85.4562ZM207.915 122.516C174.386 68.1295 163.675 75.8303 163.675 75.8303C163.675 75.8303 181.727 91.1518 174.386 94.6008C169.263 97.0073 138.529 94.6008 138.529 94.6008C138.529 94.6008 215.876 135.43 207.915 122.516ZM138.529 39.7331C138.529 39.7331 127.645 81.7776 138.529 85.4562C149.243 89.0773 167.866 85.4562 167.866 85.4562C167.866 85.4562 155.759 86.4188 143.651 75.8303C135.627 68.8126 138.529 39.7331 138.529 39.7331ZM241.443 22.4065C241.443 22.4065 259.605 32.0324 255.879 44.0648C255.879 44.0648 248.429 61.3914 269.384 56.5785C297.79 47.9151 281.957 39.7331 281.957 39.7331L269.384 32.0324L241.443 22.4065ZM189.753 20C189.753 20 195.397 41.4298 205.586 47.9151C219.833 56.9824 234.182 56.9824 248.429 47.9151C258.617 41.4308 233.987 48.5999 217.694 44.0648C198.991 38.859 189.753 20 189.753 20ZM213.037 97.0073C213.037 97.0073 266.124 102.302 272.917 126.848C282.241 160.538 275.229 116.228 274.972 107.114C274.357 85.3126 213.037 97.0073 213.037 97.0073ZM263.796 75.8303C303.844 84.4936 305.707 58.9849 305.707 58.9849C305.707 58.9849 314.329 79.9878 309.898 87.3814C300.143 103.659 245.663 71.9078 263.796 75.8303ZM340.633 107.114C340.633 107.114 299.239 89.0186 290.34 107.114C284.687 118.608 291.011 152.211 294.531 139.843C303.844 107.114 340.633 107.114 340.633 107.114ZM154.827 133.586C162.927 143.479 178.577 141.768 189.753 145.618C206.045 151.231 197.204 159.094 172.058 180.271C167.695 183.945 224.213 162.463 202.792 135.992C195.663 127.183 195.487 129.84 174.386 115.778C180.44 133.586 174.386 133.586 154.827 133.586ZM217.694 135.992C207.915 122.516 197.204 94.6008 197.204 94.6008C212.571 122.516 227.473 133.586 248.429 152.356C248.429 152.356 237.602 163.426 217.694 135.992ZM259.605 152.356C247.711 150.113 241.096 132.452 248.429 122.516C256.449 111.648 266.124 152.356 266.124 152.356C266.124 152.356 262.109 152.829 259.605 152.356ZM274.972 170.164C259.605 175.458 222.351 168.239 213.037 139.843C237.252 165.199 269.384 162.463 277.301 162.463C299.033 162.463 317.814 203.855 317.814 203.855C317.814 203.855 290.34 164.87 274.972 170.164ZM350.412 133.586C350.412 133.586 334.113 152.356 309.898 152.356C293.926 152.356 329.924 159.423 344.358 152.356C353.206 148.025 350.412 133.586 350.412 133.586ZM356 178.828C356 178.828 353.45 187.242 350.412 191.822C333.73 216.976 285.217 152.356 285.217 152.356C285.217 152.356 315.365 179.327 338.77 180.271C345.516 180.544 356 178.828 356 178.828ZM350.412 220.219C350.412 220.219 357.397 207.705 354.137 207.705C320.143 207.705 317.814 195.192 317.814 195.192C317.814 195.192 325.265 211.074 335.976 213.481C342.78 215.01 350.412 220.219 350.412 220.219ZM344.824 239.471C344.824 239.471 286.614 189.897 305.707 213.481C313.435 223.026 336.571 230.809 335.976 241.877C335.045 259.204 344.824 239.471 344.824 239.471ZM214.9 164.389C207.26 164.479 169.263 187.01 202.792 180.271C223.158 176.179 221.057 190.898 233.993 193.266C252.583 196.671 281.957 187.01 281.957 187.01C281.957 187.01 245.492 187.993 227.473 175.458C222.122 171.736 221.35 164.312 214.9 164.389ZM259.605 203.855C285.217 207.705 305.707 231.289 305.707 231.289C305.707 231.289 285.217 203.855 301.05 199.523C308.509 197.483 251.784 202.679 259.605 203.855Z" stroke="#F3DEDE"/>
<g filter="url(#filter19_i_108_5)">
<path d="M121 382.963C23 364.956 5.99999 250.915 6 268.921C6.00001 286.928 9.99998 325.442 55 393.466C86.1906 446.607 134.5 490.502 170 515.01C203.982 534.057 220 520.012 220 520.012C284 470.494 297 351.951 297 351.951C297 351.951 261.882 459.474 229 433.981C189 402.97 180 382.963 121 382.963Z" stroke="#C4E2FF" stroke-width="2"/>
</g>
<defs>
<filter id="filter0_di_108_5" x="505" y="3.9314" width="339.094" height="304.546" filterUnits="userSpaceOnUse" color-interpolation-filters="sRGB">
<feFlood flood-opacity="0" result="BackgroundImageFix"/>
<feColorMatrix in="SourceAlpha" type="matrix" values="0 0 0 0 0 0 0 0 0 0 0 0 0 0 0 0 0 0 127 0" result="hardAlpha"/>
<feOffset dy="4"/>
<feGaussianBlur stdDeviation="2"/>
<feComposite in2="hardAlpha" operator="out"/>
<feColorMatrix type="matrix" values="0 0 0 0 0 0 0 0 0 0 0 0 0 0 0 0 0 0 0.25 0"/>
<feBlend mode="normal" in2="BackgroundImageFix" result="effect1_dropShadow_108_5"/>
<feBlend mode="normal" in="SourceGraphic" in2="effect1_dropShadow_108_5" result="shape"/>
<feColorMatrix in="SourceAlpha" type="matrix" values="0 0 0 0 0 0 0 0 0 0 0 0 0 0 0 0 0 0 127 0" result="hardAlpha"/>
<feOffset dy="4"/>
<feGaussianBlur stdDeviation="2"/>
<feComposite in2="hardAlpha" operator="arithmetic" k2="-1" k3="1"/>
<feColorMatrix type="matrix" values="0 0 0 0 0 0 0 0 0 0 0 0 0 0 0 0 0 0 0.25 0"/>
<feBlend mode="normal" in2="shape" result="effect2_innerShadow_108_5"/>
</filter>
<filter id="filter1_i_108_5" x="508.628" y="60.376" width="287.872" height="290.536" filterUnits="userSpaceOnUse" color-interpolation-filters="sRGB">
<feFlood flood-opacity="0" result="BackgroundImageFix"/>
<feBlend mode="normal" in="SourceGraphic" in2="BackgroundImageFix" result="shape"/>
<feColorMatrix in="SourceAlpha" type="matrix" values="0 0 0 0 0 0 0 0 0 0 0 0 0 0 0 0 0 0 127 0" result="hardAlpha"/>
<feOffset dy="4"/>
<feGaussianBlur stdDeviation="2"/>
<feComposite in2="hardAlpha" operator="arithmetic" k2="-1" k3="1"/>
<feColorMatrix type="matrix" values="0 0 0 0 0 0 0 0 0 0 0 0 0 0 0 0 0 0 0.25 0"/>
<feBlend mode="normal" in2="shape" result="effect1_innerShadow_108_5"/>
</filter>
<filter id="filter2_i_108_5" x="502" y="69" width="82.6441" height="131" filterUnits="userSpaceOnUse" color-interpolation-filters="sRGB">
<feFlood flood-opacity="0" result="BackgroundImageFix"/>
<feBlend mode="normal" in="SourceGraphic" in2="BackgroundImageFix" result="shape"/>
<feColorMatrix in="SourceAlpha" type="matrix" values="0 0 0 0 0 0 0 0 0 0 0 0 0 0 0 0 0 0 127 0" result="hardAlpha"/>
<feOffset dy="4"/>
<feGaussianBlur stdDeviation="2"/>
<feComposite in2="hardAlpha" operator="arithmetic" k2="-1" k3="1"/>
<feColorMatrix type="matrix" values="0 0 0 0 0 0 0 0 0 0 0 0 0 0 0 0 0 0 0.25 0"/>
<feBlend mode="normal" in2="shape" result="effect1_innerShadow_108_5"/>
</filter>
<filter id="filter3_di_108_5" x="476" y="145.839" width="303.784" height="382.154" filterUnits="userSpaceOnUse" color-interpolation-filters="sRGB">
<feFlood flood-opacity="0" result="BackgroundImageFix"/>
<feColorMatrix in="SourceAlpha" type="matrix" values="0 0 0 0 0 0 0 0 0 0 0 0 0 0 0 0 0 0 127 0" result="hardAlpha"/>
<feOffset dy="4"/>
<feGaussianBlur stdDeviation="2"/>
<feComposite in2="hardAlpha" operator="out"/>
<feColorMatrix type="matrix" values="0 0 0 0 0 0 0 0 0 0 0 0 0 0 0 0 0 0 0.25 0"/>
<feBlend mode="normal" in2="BackgroundImageFix" result="effect1_dropShadow_108_5"/>
<feBlend mode="normal" in="SourceGraphic" in2="effect1_dropShadow_108_5" result="shape"/>
<feColorMatrix in="SourceAlpha" type="matrix" values="0 0 0 0 0 0 0 0 0 0 0 0 0 0 0 0 0 0 127 0" result="hardAlpha"/>
<feOffset dy="4"/>
<feGaussianBlur stdDeviation="2"/>
<feComposite in2="hardAlpha" operator="arithmetic" k2="-1" k3="1"/>
<feColorMatrix type="matrix" values="0 0 0 0 0 0 0 0 0 0 0 0 0 0 0 0 0 0 0.25 0"/>
<feBlend mode="normal" in2="shape" result="effect2_innerShadow_108_5"/>
</filter>
<filter id="filter4_di_108_5" x="475" y="157.412" width="78.1605" height="114.582" filterUnits="userSpaceOnUse" color-interpolation-filters="sRGB">
<feFlood flood-opacity="0" result="BackgroundImageFix"/>
<feColorMatrix in="SourceAlpha" type="matrix" values="0 0 0 0 0 0 0 0 0 0 0 0 0 0 0 0 0 0 127 0" result="hardAlpha"/>
<feOffset dy="4"/>
<feGaussianBlur stdDeviation="2"/>
<feComposite in2="hardAlpha" operator="out"/>
<feColorMatrix type="matrix" values="0 0 0 0 0 0 0 0 0 0 0 0 0 0 0 0 0 0 0.25 0"/>
<feBlend mode="normal" in2="BackgroundImageFix" result="effect1_dropShadow_108_5"/>
<feBlend mode="normal" in="SourceGraphic" in2="effect1_dropShadow_108_5" result="shape"/>
<feColorMatrix in="SourceAlpha" type="matrix" values="0 0 0 0 0 0 0 0 0 0 0 0 0 0 0 0 0 0 127 0" result="hardAlpha"/>
<feOffset dy="4"/>
<feGaussianBlur stdDeviation="2"/>
<feComposite in2="hardAlpha" operator="arithmetic" k2="-1" k3="1"/>
<feColorMatrix type="matrix" values="0 0 0 0 0 0 0 0 0 0 0 0 0 0 0 0 0 0 0.25 0"/>
<feBlend mode="normal" in2="shape" result="effect2_innerShadow_108_5"/>
</filter>
<filter id="filter5_i_108_5" x="548.884" y="72.3021" width="31.2917" height="39.6521" filterUnits="userSpaceOnUse" color-interpolation-filters="sRGB">
<feFlood flood-opacity="0" result="BackgroundImageFix"/>
<feBlend mode="normal" in="SourceGraphic" in2="BackgroundImageFix" result="shape"/>
<feColorMatrix in="SourceAlpha" type="matrix" values="0 0 0 0 0 0 0 0 0 0 0 0 0 0 0 0 0 0 127 0" result="hardAlpha"/>
<feOffset dy="4"/>
<feGaussianBlur stdDeviation="2"/>
<feComposite in2="hardAlpha" operator="arithmetic" k2="-1" k3="1"/>
<feColorMatrix type="matrix" values="0 0 0 0 0 0 0 0 0 0 0 0 0 0 0 0 0 0 0.25 0"/>
<feBlend mode="normal" in2="shape" result="effect1_innerShadow_108_5"/>
</filter>
<filter id="filter6_i_108_5" x="480" y="263.08" width="291" height="261.906" filterUnits="userSpaceOnUse" color-interpolation-filters="sRGB">
<feFlood flood-opacity="0" result="BackgroundImageFix"/>
<feBlend mode="normal" in="SourceGraphic" in2="BackgroundImageFix" result="shape"/>
<feColorMatrix in="SourceAlpha" type="matrix" values="0 0 0 0 0 0 0 0 0 0 0 0 0 0 0 0 0 0 127 0" result="hardAlpha"/>
<feOffset dy="4"/>
<feGaussianBlur stdDeviation="2"/>
<feComposite in2="hardAlpha" operator="arithmetic" k2="-1" k3="1"/>
<feColorMatrix type="matrix" values="0 0 0 0 0 0 0 0 0 0 0 0 0 0 0 0 0 0 0.25 0"/>
<feBlend mode="normal" in2="shape" result="effect1_innerShadow_108_5"/>
</filter>
<filter id="filter7_i_108_5" x="592.5" y="33" width="82" height="136" filterUnits="userSpaceOnUse" color-interpolation-filters="sRGB">
<feFlood flood-opacity="0" result="BackgroundImageFix"/>
<feBlend mode="normal" in="SourceGraphic" in2="BackgroundImageFix" result="shape"/>
<feColorMatrix in="SourceAlpha" type="matrix" values="0 0 0 0 0 0 0 0 0 0 0 0 0 0 0 0 0 0 127 0" result="hardAlpha"/>
<feOffset dy="4"/>
<feGaussianBlur stdDeviation="2"/>
<feComposite in2="hardAlpha" operator="arithmetic" k2="-1" k3="1"/>
<feColorMatrix type="matrix" values="0 0 0 0 0 0 0 0 0 0 0 0 0 0 0 0 0 0 0.25 0"/>
<feBlend mode="normal" in2="shape" result="effect1_innerShadow_108_5"/>
</filter>
<filter id="filter8_i_108_5" x="568" y="7.5" width="269.5" height="241.9" filterUnits="userSpaceOnUse" color-interpolation-filters="sRGB">
<feFlood flood-opacity="0" result="BackgroundImageFix"/>
<feBlend mode="normal" in="SourceGraphic" in2="BackgroundImageFix" result="shape"/>
<feColorMatrix in="SourceAlpha" type="matrix" values="0 0 0 0 0 0 0 0 0 0 0 0 0 0 0 0 0 0 127 0" result="hardAlpha"/>
<feOffset dy="4"/>
<feGaussianBlur stdDeviation="2"/>
<feComposite in2="hardAlpha" operator="arithmetic" k2="-1" k3="1"/>
<feColorMatrix type="matrix" values="0 0 0 0 0 0 0 0 0 0 0 0 0 0 0 0 0 0 0.25 0"/>
<feBlend mode="normal" in2="shape" result="effect1_innerShadow_108_5"/>
</filter>
<filter id="filter9_di_108_5" x="31" y="7.93138" width="339.094" height="304.546" filterUnits="userSpaceOnUse" color-interpolation-filters="sRGB">
<feFlood flood-opacity="0" result="BackgroundImageFix"/>
<feColorMatrix in="SourceAlpha" type="matrix" values="0 0 0 0 0 0 0 0 0 0 0 0 0 0 0 0 0 0 127 0" result="hardAlpha"/>
<feOffset dy="4"/>
<feGaussianBlur stdDeviation="2"/>
<feComposite in2="hardAlpha" operator="out"/>
<feColorMatrix type="matrix" values="0 0 0 0 0 0 0 0 0 0 0 0 0 0 0 0 0 0 0.25 0"/>
<feBlend mode="normal" in2="BackgroundImageFix" result="effect1_dropShadow_108_5"/>
<feBlend mode="normal" in="SourceGraphic" in2="effect1_dropShadow_108_5" result="shape"/>
<feColorMatrix in="SourceAlpha" type="matrix" values="0 0 0 0 0 0 0 0 0 0 0 0 0 0 0 0 0 0 127 0" result="hardAlpha"/>
<feOffset dy="4"/>
<feGaussianBlur stdDeviation="2"/>
<feComposite in2="hardAlpha" operator="arithmetic" k2="-1" k3="1"/>
<feColorMatrix type="matrix" values="0 0 0 0 0 0 0 0 0 0 0 0 0 0 0 0 0 0 0.25 0"/>
<feBlend mode="normal" in2="shape" result="effect2_innerShadow_108_5"/>
</filter>
<filter id="filter10_f_108_5" x="28" y="0.931396" width="345.094" height="310.547" filterUnits="userSpaceOnUse" color-interpolation-filters="sRGB">
<feFlood flood-opacity="0" result="BackgroundImageFix"/>
<feBlend mode="normal" in="SourceGraphic" in2="BackgroundImageFix" result="shape"/>
<feGaussianBlur stdDeviation="2" result="effect1_foregroundBlur_108_5"/>
</filter>
<filter id="filter11_i_108_5" x="34.6284" y="64.376" width="287.872" height="290.536" filterUnits="userSpaceOnUse" color-interpolation-filters="sRGB">
<feFlood flood-opacity="0" result="BackgroundImageFix"/>
<feBlend mode="normal" in="SourceGraphic" in2="BackgroundImageFix" result="shape"/>
<feColorMatrix in="SourceAlpha" type="matrix" values="0 0 0 0 0 0 0 0 0 0 0 0 0 0 0 0 0 0 127 0" result="hardAlpha"/>
<feOffset dy="4"/>
<feGaussianBlur stdDeviation="2"/>
<feComposite in2="hardAlpha" operator="arithmetic" k2="-1" k3="1"/>
<feColorMatrix type="matrix" values="0 0 0 0 0 0 0 0 0 0 0 0 0 0 0 0 0 0 0.25 0"/>
<feBlend mode="normal" in2="shape" result="effect1_innerShadow_108_5"/>
</filter>
<filter id="filter12_i_108_5" x="28" y="73" width="82.6441" height="131" filterUnits="userSpaceOnUse" color-interpolation-filters="sRGB">
<feFlood flood-opacity="0" result="BackgroundImageFix"/>
<feBlend mode="normal" in="SourceGraphic" in2="BackgroundImageFix" result="shape"/>
<feColorMatrix in="SourceAlpha" type="matrix" values="0 0 0 0 0 0 0 0 0 0 0 0 0 0 0 0 0 0 127 0" result="hardAlpha"/>
<feOffset dy="4"/>
<feGaussianBlur stdDeviation="2"/>
<feComposite in2="hardAlpha" operator="arithmetic" k2="-1" k3="1"/>
<feColorMatrix type="matrix" values="0 0 0 0 0 0 0 0 0 0 0 0 0 0 0 0 0 0 0.25 0"/>
<feBlend mode="normal" in2="shape" result="effect1_innerShadow_108_5"/>
</filter>
<filter id="filter13_di_108_5" x="2" y="149.839" width="303.784" height="382.154" filterUnits="userSpaceOnUse" color-interpolation-filters="sRGB">
<feFlood flood-opacity="0" result="BackgroundImageFix"/>
<feColorMatrix in="SourceAlpha" type="matrix" values="0 0 0 0 0 0 0 0 0 0 0 0 0 0 0 0 0 0 127 0" result="hardAlpha"/>
<feOffset dy="4"/>
<feGaussianBlur stdDeviation="2"/>
<feComposite in2="hardAlpha" operator="out"/>
<feColorMatrix type="matrix" values="0 0 0 0 0 0 0 0 0 0 0 0 0 0 0 0 0 0 0.25 0"/>
<feBlend mode="normal" in2="BackgroundImageFix" result="effect1_dropShadow_108_5"/>
<feBlend mode="normal" in="SourceGraphic" in2="effect1_dropShadow_108_5" result="shape"/>
<feColorMatrix in="SourceAlpha" type="matrix" values="0 0 0 0 0 0 0 0 0 0 0 0 0 0 0 0 0 0 127 0" result="hardAlpha"/>
<feOffset dy="4"/>
<feGaussianBlur stdDeviation="2"/>
<feComposite in2="hardAlpha" operator="arithmetic" k2="-1" k3="1"/>
<feColorMatrix type="matrix" values="0 0 0 0 0 0 0 0 0 0 0 0 0 0 0 0 0 0 0.25 0"/>
<feBlend mode="normal" in2="shape" result="effect2_innerShadow_108_5"/>
</filter>
<filter id="filter14_di_108_5" x="0" y="160.412" width="80.1605" height="116.582" filterUnits="userSpaceOnUse" color-interpolation-filters="sRGB">
<feFlood flood-opacity="0" result="BackgroundImageFix"/>
<feColorMatrix in="SourceAlpha" type="matrix" values="0 0 0 0 0 0 0 0 0 0 0 0 0 0 0 0 0 0 127 0" result="hardAlpha"/>
<feOffset dy="4"/>
<feGaussianBlur stdDeviation="2"/>
<feComposite in2="hardAlpha" operator="out"/>
<feColorMatrix type="matrix" values="0 0 0 0 0 0 0 0 0 0 0 0 0 0 0 0 0 0 0.25 0"/>
<feBlend mode="normal" in2="BackgroundImageFix" result="effect1_dropShadow_108_5"/>
<feBlend mode="normal" in="SourceGraphic" in2="effect1_dropShadow_108_5" result="shape"/>
<feColorMatrix in="SourceAlpha" type="matrix" values="0 0 0 0 0 0 0 0 0 0 0 0 0 0 0 0 0 0 127 0" result="hardAlpha"/>
<feOffset dy="4"/>
<feGaussianBlur stdDeviation="2"/>
<feComposite in2="hardAlpha" operator="arithmetic" k2="-1" k3="1"/>
<feColorMatrix type="matrix" values="0 0 0 0 0 0 0 0 0 0 0 0 0 0 0 0 0 0 0.25 0"/>
<feBlend mode="normal" in2="shape" result="effect2_innerShadow_108_5"/>
</filter>
<filter id="filter15_i_108_5" x="74.8842" y="76.3021" width="31.2917" height="39.6521" filterUnits="userSpaceOnUse" color-interpolation-filters="sRGB">
<feFlood flood-opacity="0" result="BackgroundImageFix"/>
<feBlend mode="normal" in="SourceGraphic" in2="BackgroundImageFix" result="shape"/>
<feColorMatrix in="SourceAlpha" type="matrix" values="0 0 0 0 0 0 0 0 0 0 0 0 0 0 0 0 0 0 127 0" result="hardAlpha"/>
<feOffset dy="4"/>
<feGaussianBlur stdDeviation="2"/>
<feComposite in2="hardAlpha" operator="arithmetic" k2="-1" k3="1"/>
<feColorMatrix type="matrix" values="0 0 0 0 0 0 0 0 0 0 0 0 0 0 0 0 0 0 0.25 0"/>
<feBlend mode="normal" in2="shape" result="effect1_innerShadow_108_5"/>
</filter>
<filter id="filter16_i_108_5" x="6" y="267.08" width="291" height="261.906" filterUnits="userSpaceOnUse" color-interpolation-filters="sRGB">
<feFlood flood-opacity="0" result="BackgroundImageFix"/>
<feBlend mode="normal" in="SourceGraphic" in2="BackgroundImageFix" result="shape"/>
<feColorMatrix in="SourceAlpha" type="matrix" values="0 0 0 0 0 0 0 0 0 0 0 0 0 0 0 0 0 0 127 0" result="hardAlpha"/>
<feOffset dy="4"/>
<feGaussianBlur stdDeviation="2"/>
<feComposite in2="hardAlpha" operator="arithmetic" k2="-1" k3="1"/>
<feColorMatrix type="matrix" values="0 0 0 0 0 0 0 0 0 0 0 0 0 0 0 0 0 0 0.25 0"/>
<feBlend mode="normal" in2="shape" result="effect1_innerShadow_108_5"/>
</filter>
<filter id="filter17_f_108_5" x="122.414" y="34.5" width="94.2835" height="145.539" filterUnits="userSpaceOnUse" color-interpolation-filters="sRGB">
<feFlood flood-opacity="0" result="BackgroundImageFix"/>
<feBlend mode="normal" in="SourceGraphic" in2="BackgroundImageFix" result="shape"/>
<feGaussianBlur stdDeviation="2" result="effect1_foregroundBlur_108_5"/>
</filter>
<filter id="filter18_f_108_5" x="97.0919" y="14.0117" width="269.31" height="243.494" filterUnits="userSpaceOnUse" color-interpolation-filters="sRGB">
<feFlood flood-opacity="0" result="BackgroundImageFix"/>
<feBlend mode="normal" in="SourceGraphic" in2="BackgroundImageFix" result="shape"/>
<feGaussianBlur stdDeviation="2" result="effect1_foregroundBlur_108_5"/>
</filter>
<filter id="filter19_i_108_5" x="5" y="266" width="292.994" height="264" filterUnits="userSpaceOnUse" color-interpolation-filters="sRGB">
<feFlood flood-opacity="0" result="BackgroundImageFix"/>
<feBlend mode="normal" in="SourceGraphic" in2="BackgroundImageFix" result="shape"/>
<feColorMatrix in="SourceAlpha" type="matrix" values="0 0 0 0 0 0 0 0 0 0 0 0 0 0 0 0 0 0 127 0" result="hardAlpha"/>
<feOffset dy="4"/>
<feGaussianBlur stdDeviation="2"/>
<feComposite in2="hardAlpha" operator="arithmetic" k2="-1" k3="1"/>
<feColorMatrix type="matrix" values="0 0 0 0 0 0 0 0 0 0 0 0 0 0 0 0 0 0 0.25 0"/>
<feBlend mode="normal" in2="shape" result="effect1_innerShadow_108_5"/>
</filter>
</defs>
</svg>
